<svg xmlns="http://www.w3.org/2000/svg" xmlns:xlink="http://www.w3.org/1999/xlink" width="500" zoomAndPan="magnify" viewBox="0 0 375 374.999991" height="500" preserveAspectRatio="xMidYMid meet" version="1.2"><defs><clipPath id="357b119f3c"><path d="M 29.871094 29.871094 L 344.871094 29.871094 L 344.871094 344.871094 L 29.871094 344.871094 Z M 29.871094 29.871094 "/></clipPath><clipPath id="f5360be2bd"><path d="M 36 29.871094 L 338 29.871094 L 338 344.871094 L 36 344.871094 Z M 36 29.871094 "/></clipPath><clipPath id="381a245e78"><path d="M 184 148 L 235 148 L 235 173 L 184 173 Z M 184 148 "/></clipPath><clipPath id="892b117500"><path d="M 185.128906 147.394531 L 235.097656 149.054688 L 234.308594 172.832031 L 184.339844 171.171875 Z M 185.128906 147.394531 "/></clipPath><clipPath id="bcc1cd847c"><path d="M 210.078125 148.222656 L 234.238281 172.828125 L 184.339844 171.171875 Z M 210.078125 148.222656 "/></clipPath><clipPath id="433dc9e337"><path d="M 105 170.035156 L 270.785156 170.035156 L 270.785156 268.160156 L 105 268.160156 Z M 105 170.035156 "/></clipPath><clipPath id="e9ea298fb4"><path d="M 266 168 L 295 168 L 295 221 L 266 221 Z M 266 168 "/></clipPath><clipPath id="a5a0e167db"><path d="M 255.398438 171.621094 L 283.089844 165.304688 L 294.21875 214.089844 L 266.527344 220.40625 Z M 255.398438 171.621094 "/></clipPath><clipPath id="68c913ec8c"><path d="M 269.246094 168.464844 L 294.210938 214.046875 L 266.519531 220.363281 Z M 269.246094 168.464844 "/></clipPath><clipPath id="5e4fc11a63"><path d="M 108 165 L 185 165 L 185 173 L 108 173 Z M 108 165 "/></clipPath><clipPath id="2efb0a218d"><path d="M 109.085938 165.308594 L 184.503906 167.609375 L 184.367188 172.152344 L 108.949219 169.851562 Z M 109.085938 165.308594 "/></clipPath><clipPath id="8d28a700dc"><path d="M 222.761719 90.703125 L 260.257812 90.703125 L 260.257812 125.609375 L 222.761719 125.609375 Z M 222.761719 90.703125 "/></clipPath><clipPath id="c7e9af501e"><path d="M 241.46875 90.703125 L 260.179688 125.609375 L 222.761719 125.609375 Z M 241.46875 90.703125 "/></clipPath><clipPath id="b4f35665d3"><path d="M 226.433594 122.800781 L 259.15625 122.800781 L 259.15625 170.035156 L 226.433594 170.035156 Z M 226.433594 122.800781 "/></clipPath><clipPath id="c8b4579da5"><path d="M 267 216 L 293 216 L 293 270 L 267 270 Z M 267 216 "/></clipPath><clipPath id="e6cf6004f3"><path d="M 267.25 216.734375 L 291.304688 216.101562 L 292.703125 268.996094 L 268.648438 269.628906 Z M 267.25 216.734375 "/></clipPath><clipPath id="24e0b6dd19"><path d="M 82 214 L 128 214 L 128 272 L 82 272 Z M 82 214 "/></clipPath><clipPath id="7e0cbef7e0"><path d="M 82.535156 215.597656 L 125.828125 214.328125 L 127.464844 270.132812 L 84.175781 271.402344 Z M 82.535156 215.597656 "/></clipPath><clipPath id="4a6e88cb1e"><path d="M 81 164 L 121 164 L 121 220 L 81 220 Z M 81 164 "/></clipPath><clipPath id="79303574d2"><path d="M 86.792969 162.859375 L 125.984375 167.109375 L 120.335938 219.160156 L 81.144531 214.910156 Z M 86.792969 162.859375 "/></clipPath><clipPath id="7f86e68b59"><path d="M 106.386719 164.984375 L 120.34375 219.097656 L 81.152344 214.847656 Z M 106.386719 164.984375 "/></clipPath><clipPath id="e6d68b41e3"><path d="M 106.296875 165.917969 L 170.707031 165.917969 L 170.707031 185.367188 L 106.296875 185.367188 Z M 106.296875 165.917969 "/></clipPath><clipPath id="71111d8462"><path d="M 55.066406 268 L 320.285156 268 L 320.285156 274.71875 L 55.066406 274.71875 Z M 55.066406 268 "/></clipPath><clipPath id="f7c1c85b80"><path d="M 239 65.46875 L 243 65.46875 L 243 92 L 239 92 Z M 239 65.46875 "/></clipPath><clipPath id="ed91c6b77c"><path d="M 54.785156 270.429688 L 58.039062 270.429688 L 58.039062 273.683594 L 54.785156 273.683594 Z M 54.785156 270.429688 "/></clipPath><clipPath id="5a30cbd51b"><path d="M 56.410156 270.429688 C 55.515625 270.429688 54.785156 271.15625 54.785156 272.054688 C 54.785156 272.953125 55.515625 273.683594 56.410156 273.683594 C 57.308594 273.683594 58.039062 272.953125 58.039062 272.054688 C 58.039062 271.15625 57.308594 270.429688 56.410156 270.429688 Z M 56.410156 270.429688 "/></clipPath><clipPath id="3dbc6941d2"><path d="M 316.558594 270.429688 L 320.578125 270.429688 L 320.578125 274.445312 L 316.558594 274.445312 Z M 316.558594 270.429688 "/></clipPath><clipPath id="6d1c66a4de"><path d="M 318.566406 270.429688 C 317.457031 270.429688 316.558594 271.328125 316.558594 272.4375 C 316.558594 273.546875 317.457031 274.445312 318.566406 274.445312 C 319.675781 274.445312 320.578125 273.546875 320.578125 272.4375 C 320.578125 271.328125 319.675781 270.429688 318.566406 270.429688 Z M 318.566406 270.429688 "/></clipPath></defs><g id="802f6e8fc5"><g clip-rule="nonzero" clip-path="url(#357b119f3c)"><path style=" stroke:none;fill-rule:nonzero;fill:#aad1e7;fill-opacity:1;" d="M 187.367188 29.871094 C 274.371094 29.871094 344.851562 100.355469 344.851562 187.359375 C 344.851562 274.363281 274.371094 344.847656 187.367188 344.847656 C 100.359375 344.847656 29.871094 274.363281 29.871094 187.359375 C 29.871094 100.355469 100.359375 29.871094 187.367188 29.871094 Z M 187.367188 29.871094 "/></g><g clip-rule="nonzero" clip-path="url(#f5360be2bd)"><path style=" stroke:none;fill-rule:nonzero;fill:#ffffff;fill-opacity:1;" d="M 187.367188 29.871094 C 186.59375 29.871094 185.835938 29.917969 185.066406 29.929688 L 185.066406 133.617188 C 158.886719 133.363281 133.03125 128.796875 108.515625 120.171875 C 117.894531 88.382812 133.835938 58.644531 155.6875 33.058594 C 153.226562 33.558594 150.792969 34.125 148.378906 34.738281 C 128.136719 59.671875 113.21875 88.210938 104.199219 118.597656 C 91.261719 113.765625 78.714844 107.820312 66.722656 100.75 C 66.175781 100.429688 65.59375 100.347656 64.980469 100.507812 C 64.367188 100.667969 63.898438 101.019531 63.578125 101.5625 C 63.421875 101.828125 63.324219 102.109375 63.28125 102.410156 C 63.238281 102.710938 63.253906 103.011719 63.332031 103.304688 C 63.40625 103.601562 63.535156 103.871094 63.71875 104.113281 C 63.902344 104.355469 64.125 104.554688 64.390625 104.710938 C 76.71875 111.976562 89.625 118.078125 102.933594 123.03125 C 97.390625 143.105469 94.417969 163.941406 94.21875 185.0625 L 39.058594 185.0625 C 38.753906 185.058594 38.460938 185.117188 38.179688 185.234375 C 37.898438 185.351562 37.648438 185.519531 37.433594 185.734375 C 37.21875 185.949219 37.050781 186.195312 36.9375 186.480469 C 36.820312 186.761719 36.761719 187.054688 36.761719 187.359375 C 36.761719 187.664062 36.820312 187.957031 36.9375 188.238281 C 37.054688 188.519531 37.21875 188.765625 37.4375 188.980469 C 37.652344 189.195312 37.898438 189.359375 38.179688 189.476562 C 38.460938 189.59375 38.753906 189.652344 39.058594 189.652344 L 94.21875 189.652344 C 94.417969 210.773438 97.390625 231.609375 102.933594 251.6875 C 89.625 256.640625 76.71875 262.742188 64.390625 270.007812 C 64.128906 270.164062 63.90625 270.363281 63.722656 270.605469 C 63.539062 270.847656 63.40625 271.117188 63.332031 271.414062 C 63.253906 271.707031 63.238281 272.003906 63.28125 272.308594 C 63.324219 272.609375 63.421875 272.890625 63.578125 273.152344 C 63.730469 273.414062 63.929688 273.636719 64.171875 273.820312 C 64.417969 274.003906 64.683594 274.136719 64.980469 274.210938 C 65.273438 274.289062 65.574219 274.304688 65.875 274.261719 C 66.175781 274.21875 66.457031 274.121094 66.722656 273.96875 C 78.710938 266.902344 91.261719 260.953125 104.199219 256.117188 C 113.214844 286.507812 128.136719 315.046875 148.378906 339.976562 C 150.792969 340.589844 153.226562 341.15625 155.683594 341.65625 C 133.835938 316.074219 117.894531 286.332031 108.515625 254.542969 C 133.03125 245.917969 158.886719 241.347656 185.066406 241.09375 L 185.066406 344.789062 C 185.835938 344.796875 186.59375 344.84375 187.367188 344.84375 C 188.132812 344.84375 188.890625 344.800781 189.660156 344.789062 L 189.660156 241.09375 C 215.839844 241.347656 241.695312 245.914062 266.210938 254.539062 C 256.835938 286.332031 240.890625 316.074219 219.042969 341.660156 C 221.5 341.160156 223.933594 340.59375 226.347656 339.980469 C 246.589844 315.046875 261.511719 286.503906 270.527344 256.113281 C 283.46875 260.949219 296.015625 266.898438 308.007812 273.96875 C 308.273438 274.121094 308.554688 274.21875 308.855469 274.261719 C 309.15625 274.304688 309.453125 274.285156 309.746094 274.210938 C 310.042969 274.132812 310.308594 274.003906 310.554688 273.820312 C 310.796875 273.636719 310.992188 273.414062 311.148438 273.152344 C 311.304688 272.890625 311.402344 272.609375 311.445312 272.308594 C 311.488281 272.007812 311.472656 271.707031 311.394531 271.414062 C 311.320312 271.117188 311.191406 270.851562 311.007812 270.605469 C 310.824219 270.363281 310.601562 270.164062 310.339844 270.007812 C 298.011719 262.742188 285.101562 256.636719 271.789062 251.6875 C 277.335938 231.609375 280.308594 210.773438 280.507812 189.652344 L 335.664062 189.652344 C 335.96875 189.652344 336.261719 189.59375 336.542969 189.476562 C 336.824219 189.359375 337.074219 189.195312 337.289062 188.980469 C 337.503906 188.765625 337.671875 188.519531 337.789062 188.238281 C 337.90625 187.957031 337.964844 187.664062 337.964844 187.359375 C 337.964844 187.054688 337.90625 186.761719 337.789062 186.480469 C 337.671875 186.199219 337.507812 185.949219 337.289062 185.734375 C 337.074219 185.519531 336.828125 185.351562 336.546875 185.234375 C 336.261719 185.117188 335.96875 185.058594 335.664062 185.0625 L 280.507812 185.0625 C 280.304688 163.9375 277.335938 143.105469 271.789062 123.027344 C 285.101562 118.078125 298.011719 111.972656 310.339844 104.703125 C 310.601562 104.546875 310.824219 104.347656 311.007812 104.105469 C 311.1875 103.863281 311.316406 103.59375 311.394531 103.300781 C 311.46875 103.007812 311.484375 102.710938 311.441406 102.40625 C 311.402344 102.105469 311.300781 101.824219 311.148438 101.5625 C 310.992188 101.300781 310.796875 101.082031 310.550781 100.898438 C 310.308594 100.714844 310.042969 100.585938 309.746094 100.507812 C 309.453125 100.433594 309.15625 100.414062 308.855469 100.457031 C 308.554688 100.5 308.273438 100.597656 308.007812 100.75 C 296.015625 107.820312 283.46875 113.769531 270.527344 118.601562 C 261.507812 88.210938 246.585938 59.667969 226.347656 34.738281 C 223.925781 34.121094 221.484375 33.554688 219.019531 33.054688 C 240.875 58.640625 256.824219 88.382812 266.203125 120.175781 C 241.691406 128.800781 215.839844 133.363281 189.65625 133.617188 L 189.65625 29.929688 C 188.890625 29.917969 188.132812 29.871094 187.367188 29.871094 Z M 107.210938 124.585938 C 132.148438 133.332031 158.441406 137.960938 185.066406 138.214844 L 185.066406 185.0625 L 98.808594 185.0625 C 99.007812 164.480469 101.847656 144.164062 107.210938 124.585938 Z M 267.507812 124.585938 C 272.875 144.164062 275.714844 164.480469 275.914062 185.0625 L 189.660156 185.0625 L 189.660156 138.214844 C 216.28125 137.960938 242.574219 133.332031 267.507812 124.585938 Z M 98.808594 189.652344 L 185.066406 189.652344 L 185.066406 236.503906 C 158.441406 236.757812 132.148438 241.386719 107.210938 250.128906 C 101.847656 230.550781 99.007812 210.234375 98.808594 189.652344 Z M 189.660156 189.652344 L 275.917969 189.652344 C 275.71875 210.230469 272.878906 230.550781 267.515625 250.128906 C 242.578125 241.382812 216.285156 236.757812 189.660156 236.503906 Z M 189.660156 189.652344 "/></g><g clip-rule="nonzero" clip-path="url(#381a245e78)"><g clip-rule="nonzero" clip-path="url(#892b117500)"><g clip-rule="nonzero" clip-path="url(#bcc1cd847c)"><path style=" stroke:none;fill-rule:nonzero;fill:#f8f4f4;fill-opacity:1;" d="M 185.128906 147.394531 L 235.003906 149.050781 L 234.214844 172.828125 L 184.339844 171.171875 Z M 185.128906 147.394531 "/></g></g></g><g clip-rule="nonzero" clip-path="url(#433dc9e337)"><path style=" stroke:none;fill-rule:nonzero;fill:#f8f4f4;fill-opacity:1;" d="M 105 170.035156 L 270.96875 170.035156 L 270.96875 268.160156 L 105 268.160156 Z M 105 170.035156 "/></g><g clip-rule="nonzero" clip-path="url(#e9ea298fb4)"><g clip-rule="nonzero" clip-path="url(#a5a0e167db)"><g clip-rule="nonzero" clip-path="url(#68c913ec8c)"><path style=" stroke:none;fill-rule:nonzero;fill:#f8f4f4;fill-opacity:1;" d="M 255.398438 171.621094 L 283.089844 165.304688 L 294.21875 214.089844 L 266.527344 220.40625 Z M 255.398438 171.621094 "/></g></g></g><g clip-rule="nonzero" clip-path="url(#5e4fc11a63)"><g clip-rule="nonzero" clip-path="url(#2efb0a218d)"><path style=" stroke:none;fill-rule:nonzero;fill:#f8f4f4;fill-opacity:1;" d="M 109.085938 165.308594 L 184.511719 167.609375 L 184.371094 172.152344 L 108.949219 169.851562 Z M 109.085938 165.308594 "/></g></g><g clip-rule="nonzero" clip-path="url(#8d28a700dc)"><g clip-rule="nonzero" clip-path="url(#c7e9af501e)"><path style=" stroke:none;fill-rule:nonzero;fill:#f8f4f4;fill-opacity:1;" d="M 222.761719 90.703125 L 260.121094 90.703125 L 260.121094 125.609375 L 222.761719 125.609375 Z M 222.761719 90.703125 "/></g></g><g clip-rule="nonzero" clip-path="url(#b4f35665d3)"><path style=" stroke:none;fill-rule:nonzero;fill:#f8f4f4;fill-opacity:1;" d="M 226.433594 122.800781 L 259.15625 122.800781 L 259.15625 170.097656 L 226.433594 170.097656 Z M 226.433594 122.800781 "/></g><g clip-rule="nonzero" clip-path="url(#c8b4579da5)"><g clip-rule="nonzero" clip-path="url(#e6cf6004f3)"><path style=" stroke:none;fill-rule:nonzero;fill:#f8f4f4;fill-opacity:1;" d="M 267.25 216.734375 L 291.304688 216.101562 L 292.703125 269 L 268.648438 269.636719 Z M 267.25 216.734375 "/></g></g><g clip-rule="nonzero" clip-path="url(#24e0b6dd19)"><g clip-rule="nonzero" clip-path="url(#7e0cbef7e0)"><path style=" stroke:none;fill-rule:nonzero;fill:#f8f4f4;fill-opacity:1;" d="M 82.535156 215.597656 L 125.828125 214.328125 L 127.464844 270.132812 L 84.175781 271.402344 Z M 82.535156 215.597656 "/></g></g><g clip-rule="nonzero" clip-path="url(#4a6e88cb1e)"><g clip-rule="nonzero" clip-path="url(#79303574d2)"><g clip-rule="nonzero" clip-path="url(#7f86e68b59)"><path style=" stroke:none;fill-rule:nonzero;fill:#f8f4f4;fill-opacity:1;" d="M 86.792969 162.859375 L 125.984375 167.109375 L 120.335938 219.160156 L 81.144531 214.910156 Z M 86.792969 162.859375 "/></g></g></g><g clip-rule="nonzero" clip-path="url(#e6d68b41e3)"><path style=" stroke:none;fill-rule:nonzero;fill:#f8f4f4;fill-opacity:1;" d="M 106.296875 165.917969 L 170.726562 165.917969 L 170.726562 185.367188 L 106.296875 185.367188 Z M 106.296875 165.917969 "/></g><path style="fill:none;stroke-width:4;stroke-linecap:butt;stroke-linejoin:miter;stroke:#f8f4f4;stroke-opacity:1;stroke-miterlimit:4;" d="M -0.00108745 2.001638 L 50.344348 2.001353 " transform="matrix(0.320912,-0.672462,0.672462,0.320912,87.404324,202.571763)"/><path style="fill:none;stroke-width:4;stroke-linecap:butt;stroke-linejoin:miter;stroke:#f8f4f4;stroke-opacity:1;stroke-miterlimit:4;" d="M -0.00206922 2.002486 L 7.661917 1.999473 " transform="matrix(0.746667,0.0706306,-0.0706306,0.746667,83.029701,213.735425)"/><path style="fill:none;stroke-width:4;stroke-linecap:butt;stroke-linejoin:miter;stroke:#f8f4f4;stroke-opacity:1;stroke-miterlimit:4;" d="M 0.00123914 2.000123 L 24.637354 1.999206 " transform="matrix(0.326654,-0.675127,0.675127,0.326654,86.825039,201.870925)"/><path style="fill:none;stroke-width:4;stroke-linecap:butt;stroke-linejoin:miter;stroke:#f8f4f4;stroke-opacity:1;stroke-miterlimit:4;" d="M -0.0021765 1.998056 L 44.003035 1.998056 " transform="matrix(0.75,0,0,0.75,126.068039,265.813958)"/><path style="fill:none;stroke-width:4;stroke-linecap:butt;stroke-linejoin:miter;stroke:#f8f4f4;stroke-opacity:1;stroke-miterlimit:4;" d="M -0.00188756 2.00261 L 37.28797 2.002072 " transform="matrix(0.742598,0.050921,-0.050921,0.742598,263.59947,265.817649)"/><path style="fill:none;stroke-width:4;stroke-linecap:butt;stroke-linejoin:miter;stroke:#f8f4f4;stroke-opacity:1;stroke-miterlimit:4;" d="M 0.0000496809 1.998944 L 17.49754 1.999957 " transform="matrix(0.717506,-0.130194,0.130194,0.717506,276.302214,216.120439)"/><path style="fill:none;stroke-width:4;stroke-linecap:butt;stroke-linejoin:miter;stroke:#f8f4f4;stroke-opacity:1;stroke-miterlimit:4;" d="M -0.00058491 2.002298 L 52.504627 2.002298 " transform="matrix(0.75,0,0,0.75,230.973095,167.646714)"/><path style="fill:none;stroke-width:4;stroke-linecap:butt;stroke-linejoin:miter;stroke:#f8f4f4;stroke-opacity:1;stroke-miterlimit:4;" d="M -0.00194529 2.002067 L 18.832636 1.997576 " transform="matrix(0.744952,0.0868699,-0.0868699,0.744952,254.901931,164.426694)"/><path style="fill:none;stroke-width:4;stroke-linecap:butt;stroke-linejoin:miter;stroke:#f8f4f4;stroke-opacity:1;stroke-miterlimit:4;" d="M -0.00169865 1.999842 L 50.111048 1.997495 " transform="matrix(0.320637,-0.676195,0.676195,0.320637,223.718575,124.701378)"/><path style="fill:none;stroke-width:4;stroke-linecap:butt;stroke-linejoin:miter;stroke:#f8f4f4;stroke-opacity:1;stroke-miterlimit:4;" d="M 0.00147596 1.999819 L 16.966861 1.997579 " transform="matrix(-0.159235,-0.732901,0.732901,-0.159235,226.304097,136.378117)"/><g clip-rule="nonzero" clip-path="url(#71111d8462)"><path style=" stroke:none;fill-rule:nonzero;fill:#000000;fill-opacity:1;" d="M 222.984375 268.375 C 223.589844 268.375 224.195312 268.375 224.796875 268.375 L 224.800781 268.375 C 237.972656 268.4375 248.910156 268.65625 257.617188 269.03125 L 257.628906 269.035156 L 257.632812 269.035156 C 262.417969 269.210938 268.28125 269.515625 275.21875 269.949219 L 275.226562 269.949219 L 307.085938 272.210938 L 307.09375 272.210938 C 309.988281 272.347656 312.441406 272.414062 314.457031 272.414062 C 316.546875 272.414062 318.164062 272.339844 319.3125 272.195312 C 319.355469 272.1875 319.402344 272.1875 319.449219 272.1875 C 319.980469 272.1875 320.441406 272.582031 320.511719 273.125 C 320.585938 273.714844 320.171875 274.253906 319.582031 274.328125 C 318.355469 274.484375 316.640625 274.5625 314.4375 274.5625 C 312.371094 274.5625 309.878906 274.496094 306.960938 274.355469 L 306.933594 274.355469 L 275.085938 272.09375 C 268.15625 271.664062 262.304688 271.359375 257.539062 271.183594 L 257.519531 271.179688 L 257.507812 271.179688 C 248.828125 270.804688 237.921875 270.585938 224.792969 270.523438 L 224.796875 270.523438 C 224.191406 270.523438 223.589844 270.523438 222.984375 270.523438 C 211.257812 270.523438 199.570312 270.636719 187.921875 270.859375 C 170.367188 271.195312 138.511719 271.886719 92.351562 272.9375 C 81.035156 273.183594 68.984375 273.347656 56.199219 273.429688 C 56.199219 273.429688 56.195312 273.429688 56.195312 273.429688 C 55.605469 273.429688 55.125 272.953125 55.121094 272.363281 C 55.117188 271.769531 55.59375 271.285156 56.1875 271.28125 C 68.953125 271.195312 80.992188 271.03125 92.304688 270.785156 C 138.433594 269.738281 170.292969 269.046875 187.882812 268.710938 C 199.542969 268.484375 211.246094 268.375 222.984375 268.375 Z M 222.984375 268.375 "/></g><path style=" stroke:none;fill-rule:nonzero;fill:#000000;fill-opacity:1;" d="M 209.871094 149.238281 C 211.0625 149.238281 212.878906 150.308594 215.328125 152.449219 L 215.359375 152.449219 C 216.332031 153.175781 222.601562 158.992188 234.175781 169.894531 C 234.203125 169.917969 234.222656 169.9375 234.238281 169.953125 L 234.25 169.964844 C 254.0625 189.261719 265.808594 201.238281 269.492188 205.898438 C 269.859375 206.363281 269.78125 207.039062 269.316406 207.40625 C 269.117188 207.5625 268.882812 207.640625 268.652344 207.640625 C 268.335938 207.640625 268.019531 207.5 267.808594 207.234375 C 264.1875 202.652344 252.507812 190.746094 232.765625 171.515625 C 232.742188 171.496094 232.722656 171.476562 232.707031 171.460938 C 221.53125 160.933594 215.367188 155.203125 214.214844 154.277344 L 214.25 154.277344 C 214.390625 154.347656 214.527344 154.382812 214.660156 154.382812 C 214.832031 154.382812 215 154.324219 215.167969 154.207031 L 215.132812 154.207031 C 215.109375 154.21875 215.089844 154.230469 215.066406 154.238281 C 214.929688 154.300781 214.785156 154.332031 214.636719 154.332031 C 214.375 154.332031 214.101562 154.230469 213.863281 154.019531 L 213.859375 154.019531 C 211.851562 152.269531 210.546875 151.390625 209.941406 151.386719 L 209.910156 151.386719 L 209.816406 151.417969 C 201.398438 153.574219 182.042969 174.066406 151.742188 212.902344 C 151.53125 213.171875 151.214844 213.3125 150.894531 213.3125 C 150.664062 213.3125 150.433594 213.238281 150.234375 213.085938 C 149.769531 212.71875 149.6875 212.042969 150.050781 211.574219 C 180.460938 172.605469 200.148438 151.871094 209.117188 149.378906 L 209.148438 149.378906 C 209.328125 149.304688 209.519531 149.261719 209.726562 149.246094 C 209.773438 149.242188 209.824219 149.238281 209.871094 149.238281 Z M 209.871094 149.238281 "/><path style=" stroke:none;fill-rule:nonzero;fill:#000000;fill-opacity:1;" d="M 261.285156 203.113281 C 261.875 203.113281 262.355469 203.589844 262.359375 204.179688 C 262.390625 209.03125 262.441406 212.546875 262.511719 214.730469 L 262.511719 214.738281 L 262.675781 220.980469 L 262.675781 220.976562 C 263.011719 232.382812 263.253906 240.410156 263.40625 245.0625 L 263.40625 245.058594 C 263.429688 245.78125 263.460938 246.921875 263.492188 248.484375 L 263.488281 248.484375 C 263.53125 250.269531 263.550781 252.582031 263.542969 255.421875 C 263.542969 255.984375 263.539062 257.1875 263.527344 259.035156 L 263.527344 259.042969 C 263.472656 263.484375 263.453125 266.058594 263.460938 266.769531 C 263.472656 268.027344 263.5 268.863281 263.546875 269.273438 C 263.609375 269.863281 263.183594 270.394531 262.59375 270.457031 C 262.554688 270.460938 262.515625 270.464844 262.476562 270.464844 C 261.9375 270.464844 261.472656 270.054688 261.414062 269.503906 C 261.359375 269.027344 261.328125 268.121094 261.316406 266.792969 C 261.308594 266.066406 261.328125 263.472656 261.378906 259.015625 L 261.378906 259.023438 C 261.390625 257.171875 261.398438 255.972656 261.398438 255.417969 C 261.402344 252.589844 261.386719 250.292969 261.34375 248.53125 L 261.34375 248.527344 C 261.3125 246.945312 261.285156 245.8125 261.261719 245.132812 C 261.105469 240.382812 260.863281 232.351562 260.53125 221.042969 L 260.53125 221.039062 L 260.367188 214.796875 L 260.367188 214.800781 C 260.292969 212.609375 260.242188 209.070312 260.214844 204.195312 C 260.210938 203.601562 260.6875 203.117188 261.28125 203.113281 C 261.28125 203.113281 261.285156 203.113281 261.285156 203.113281 Z M 261.285156 203.113281 "/><path style=" stroke:none;fill-rule:nonzero;fill:#000000;fill-opacity:1;" d="M 159.636719 204.386719 C 160.179688 204.386719 160.644531 204.800781 160.703125 205.355469 C 161.675781 214.867188 162.464844 227.574219 163.074219 243.480469 L 163.074219 243.484375 C 163.257812 249.085938 163.316406 253.605469 163.253906 257.042969 C 163.167969 262.738281 163.007812 266.613281 162.769531 268.667969 C 162.707031 269.214844 162.242188 269.621094 161.707031 269.621094 C 161.664062 269.621094 161.621094 269.617188 161.582031 269.613281 C 160.992188 269.546875 160.570312 269.011719 160.632812 268.546875 L 160.632812 268.542969 L 160.636719 268.417969 C 160.867188 266.441406 161.023438 262.636719 161.109375 257.007812 L 161.109375 257.003906 C 161.171875 253.605469 161.109375 249.125 160.929688 243.5625 C 160.324219 227.707031 159.535156 215.042969 158.566406 205.574219 C 158.507812 204.980469 158.933594 204.453125 159.523438 204.394531 C 159.5625 204.390625 159.597656 204.386719 159.636719 204.386719 Z M 159.636719 204.386719 "/><path style=" stroke:none;fill-rule:nonzero;fill:#000000;fill-opacity:1;" d="M 214.761719 191.113281 Z M 214.546875 189 C 214.640625 189 214.730469 189.007812 214.820312 189.027344 L 214.949219 189.058594 C 214.996094 189.074219 215.046875 189.089844 215.097656 189.113281 C 216.835938 189.816406 221.015625 195.597656 227.636719 206.460938 L 227.652344 206.484375 C 230.558594 211.566406 232.898438 217.164062 234.667969 223.285156 C 238.125 234.394531 239.386719 249.542969 238.449219 268.734375 C 238.417969 269.308594 237.945312 269.757812 237.378906 269.757812 C 237.359375 269.757812 237.34375 269.757812 237.324219 269.757812 C 236.730469 269.726562 236.277344 269.222656 236.304688 268.628906 C 237.230469 249.679688 236 234.773438 232.613281 223.90625 L 232.609375 223.882812 C 230.886719 217.941406 228.621094 212.503906 225.804688 207.582031 C 219.84375 197.800781 216.101562 192.363281 214.582031 191.273438 L 214.546875 191.273438 C 213.601562 192.136719 211.886719 195.550781 209.40625 201.507812 L 209.402344 201.519531 C 205.203125 211.40625 202.070312 220.117188 199.996094 227.648438 L 199.992188 227.660156 C 196.777344 238.816406 194.90625 251.875 194.382812 266.84375 C 194.359375 267.425781 193.882812 267.882812 193.308594 267.882812 C 193.296875 267.882812 193.285156 267.882812 193.269531 267.882812 C 192.679688 267.859375 192.214844 267.363281 192.238281 266.769531 C 192.769531 251.628906 194.667969 238.398438 197.925781 227.078125 C 200.027344 219.453125 203.191406 210.65625 207.425781 200.679688 C 210.296875 193.78125 212.398438 189.964844 213.722656 189.230469 C 214 189.078125 214.273438 189 214.546875 189 Z M 214.546875 189 "/><path style=" stroke:none;fill-rule:nonzero;fill:#000000;fill-opacity:1;" d="M 106.292969 168.785156 L 106.316406 168.785156 Z M 101.917969 171.574219 C 101.945312 171.953125 102.15625 172.214844 102.554688 172.351562 C 102.238281 172.203125 102.019531 171.914062 101.957031 171.574219 Z M 103.34375 172.398438 C 103.273438 172.421875 103.203125 172.4375 103.132812 172.445312 C 103.21875 172.441406 103.300781 172.425781 103.378906 172.398438 Z M 106.152344 166.65625 C 106.550781 166.65625 106.921875 166.824219 107.265625 167.167969 C 107.679688 167.582031 108.054688 168.347656 108.390625 169.460938 L 108.398438 169.488281 C 109.371094 173.011719 110.363281 177.019531 111.382812 181.515625 L 111.386719 181.523438 C 112.933594 188.664062 114.355469 197.003906 115.652344 206.539062 L 115.652344 206.554688 C 116.125 210.046875 116.488281 213.367188 116.742188 216.511719 L 116.742188 216.519531 C 118.4375 239.101562 119.589844 256.429688 120.191406 268.503906 C 120.222656 269.097656 119.765625 269.601562 119.175781 269.632812 C 119.15625 269.632812 119.136719 269.632812 119.121094 269.632812 C 118.550781 269.632812 118.078125 269.1875 118.046875 268.609375 C 117.445312 256.570312 116.296875 239.261719 114.601562 216.6875 C 114.351562 213.578125 113.992188 210.296875 113.527344 206.84375 L 113.523438 206.828125 L 113.523438 206.816406 C 112.234375 197.34375 110.824219 189.070312 109.289062 181.992188 C 108.28125 177.535156 107.296875 173.566406 106.335938 170.082031 C 106.191406 169.601562 106.0625 169.242188 105.945312 169 L 105.910156 169 C 105.464844 169.386719 104.8125 170.351562 103.945312 171.902344 C 103.886719 172.011719 103.808594 172.101562 103.722656 172.179688 L 103.757812 172.179688 C 103.097656 173.34375 100.160156 179.078125 94.949219 189.375 C 88.140625 203.496094 84.71875 211.242188 84.675781 212.609375 L 84.679688 212.609375 C 84.695312 212.734375 84.683594 212.859375 84.65625 212.984375 C 84.109375 215.207031 83.910156 219.816406 84.0625 226.808594 L 84.0625 226.859375 C 84.007812 228.925781 84.585938 243.238281 85.800781 269.789062 C 85.828125 270.382812 85.367188 270.882812 84.777344 270.910156 C 84.761719 270.914062 84.742188 270.914062 84.726562 270.914062 C 84.15625 270.914062 83.683594 270.464844 83.65625 269.886719 C 82.449219 243.488281 81.871094 229.144531 81.914062 226.855469 C 81.761719 219.746094 81.976562 214.976562 82.554688 212.542969 L 82.53125 212.542969 C 82.582031 210.871094 86.078125 202.832031 93.023438 188.421875 L 93.035156 188.402344 C 98.652344 177.300781 101.664062 171.441406 102.070312 170.824219 L 102.089844 170.824219 C 103.347656 168.574219 104.410156 167.257812 105.273438 166.875 C 105.332031 166.851562 105.386719 166.828125 105.445312 166.808594 L 105.480469 166.808594 C 105.550781 166.777344 105.621094 166.75 105.691406 166.726562 C 105.851562 166.679688 106.003906 166.65625 106.152344 166.65625 Z M 106.152344 166.65625 "/><path style=" stroke:none;fill-rule:nonzero;fill:#000000;fill-opacity:1;" d="M 135.910156 165.050781 C 143.183594 165.050781 148.679688 165.101562 152.394531 165.203125 L 152.390625 165.203125 C 159.1875 165.386719 165.058594 165.648438 170.007812 165.992188 C 174.210938 166.269531 179.429688 166.789062 185.667969 167.546875 C 186.253906 167.617188 186.675781 168.152344 186.601562 168.742188 C 186.539062 169.289062 186.074219 169.6875 185.539062 169.6875 C 185.496094 169.6875 185.453125 169.6875 185.410156 169.679688 C 179.210938 168.925781 174.027344 168.414062 169.863281 168.136719 L 169.859375 168.136719 C 164.941406 167.796875 159.101562 167.535156 152.335938 167.355469 L 152.332031 167.355469 C 148.640625 167.25 143.167969 167.199219 135.917969 167.199219 C 133.785156 167.199219 131.5 167.203125 129.058594 167.214844 L 129.066406 167.214844 C 121.191406 167.296875 114.035156 167.460938 107.59375 167.707031 C 107.578125 167.707031 107.5625 167.707031 107.550781 167.707031 C 106.976562 167.707031 106.5 167.253906 106.480469 166.675781 C 106.457031 166.082031 106.917969 165.582031 107.511719 165.558594 C 113.972656 165.3125 121.148438 165.144531 129.042969 165.0625 L 129.050781 165.0625 C 131.488281 165.054688 133.777344 165.050781 135.910156 165.050781 Z M 135.910156 165.050781 "/><path style=" stroke:none;fill-rule:nonzero;fill:#000000;fill-opacity:1;" d="M 241.523438 89.601562 C 241.699219 89.601562 241.875 89.628906 242.046875 89.6875 C 242.203125 89.742188 242.34375 89.832031 242.460938 89.949219 C 245.699219 93.207031 252.625 106.847656 263.246094 130.871094 C 263.484375 131.414062 263.242188 132.050781 262.699219 132.289062 C 262.558594 132.351562 262.410156 132.382812 262.265625 132.382812 C 261.855469 132.382812 261.460938 132.144531 261.285156 131.742188 C 251.238281 109.019531 244.597656 95.75 241.367188 91.933594 L 241.335938 91.933594 C 240.675781 92.503906 239.65625 94.132812 238.277344 96.820312 C 231.832031 109.832031 226.910156 120.222656 223.507812 127.992188 C 223.332031 128.394531 222.9375 128.636719 222.527344 128.636719 C 222.382812 128.636719 222.234375 128.605469 222.09375 128.542969 C 221.554688 128.304688 221.304688 127.671875 221.542969 127.128906 C 224.960938 119.328125 229.894531 108.90625 236.355469 95.859375 L 236.359375 95.859375 L 236.363281 95.847656 L 236.371094 95.835938 C 238.226562 92.222656 239.714844 90.191406 240.835938 89.742188 C 241.070312 89.648438 241.296875 89.601562 241.523438 89.601562 Z M 241.523438 89.601562 "/><path style=" stroke:none;fill-rule:nonzero;fill:#000000;fill-opacity:1;" d="M 258.128906 123.660156 C 258.699219 123.660156 259.171875 124.109375 259.199219 124.6875 C 259.695312 135.878906 260.429688 149.96875 261.390625 166.964844 L 261.398438 167.054688 L 261.398438 167.0625 C 261.761719 174.574219 261.960938 179.140625 261.992188 180.773438 L 261.992188 180.761719 C 262.085938 183.777344 262.105469 186.523438 262.050781 189 L 262.050781 189.003906 C 262.003906 190.90625 261.839844 193.898438 261.5625 197.980469 C 261.523438 198.550781 261.050781 198.984375 260.492188 198.984375 C 260.46875 198.984375 260.441406 198.980469 260.417969 198.980469 C 259.824219 198.941406 259.378906 198.425781 259.421875 197.832031 C 259.699219 193.78125 259.859375 190.820312 259.90625 188.949219 C 259.960938 186.515625 259.941406 183.808594 259.847656 180.828125 L 259.847656 180.816406 C 259.816406 179.222656 259.617188 174.675781 259.253906 167.175781 L 259.25 167.085938 C 258.285156 150.074219 257.554688 135.972656 257.054688 124.785156 C 257.027344 124.191406 257.484375 123.6875 258.078125 123.660156 C 258.09375 123.660156 258.109375 123.660156 258.128906 123.660156 Z M 258.128906 123.660156 "/><path style=" stroke:none;fill-rule:nonzero;fill:#000000;fill-opacity:1;" d="M 225.601562 128.144531 C 226.167969 128.144531 226.640625 128.589844 226.671875 129.164062 C 226.96875 135.039062 227.121094 138.28125 227.136719 138.902344 C 227.277344 142.464844 227.394531 146.113281 227.476562 149.847656 L 227.476562 149.851562 C 227.546875 153.339844 227.574219 156.113281 227.570312 158.175781 C 227.570312 161.046875 227.535156 162.875 227.46875 163.65625 C 227.421875 164.214844 226.953125 164.636719 226.402344 164.636719 C 226.371094 164.636719 226.339844 164.636719 226.308594 164.632812 C 225.714844 164.582031 225.28125 164.0625 225.332031 163.46875 C 225.394531 162.75 225.425781 160.984375 225.421875 158.171875 L 225.421875 158.167969 C 225.429688 156.136719 225.398438 153.378906 225.332031 149.894531 C 225.25 146.1875 225.132812 142.542969 224.992188 138.964844 L 224.992188 138.945312 C 224.976562 138.351562 224.824219 135.128906 224.527344 129.273438 C 224.496094 128.679688 224.953125 128.175781 225.542969 128.144531 C 225.5625 128.144531 225.582031 128.144531 225.601562 128.144531 Z M 225.601562 128.144531 "/><g clip-rule="nonzero" clip-path="url(#f7c1c85b80)"><path style=" stroke:none;fill-rule:nonzero;fill:#000000;fill-opacity:1;" d="M 240.507812 65.648438 C 241.074219 65.648438 241.546875 66.09375 241.578125 66.667969 C 241.746094 69.765625 241.859375 72.59375 241.917969 75.144531 L 241.917969 75.136719 C 241.980469 77.441406 242.027344 79.652344 242.050781 81.777344 C 242.0625 82.21875 242.070312 83.746094 242.066406 86.355469 C 242.070312 87.03125 242.078125 87.539062 242.085938 87.890625 L 242.085938 87.894531 C 242.101562 88.792969 242.148438 89.558594 242.226562 90.195312 L 242.226562 90.203125 C 242.300781 90.789062 241.882812 91.328125 241.296875 91.402344 C 241.25 91.40625 241.207031 91.410156 241.160156 91.410156 C 240.628906 91.410156 240.167969 91.015625 240.101562 90.5 L 240.101562 90.492188 L 240.097656 90.460938 C 240.007812 89.75 239.957031 88.910156 239.941406 87.9375 C 239.933594 87.570312 239.925781 87.042969 239.921875 86.363281 L 239.921875 86.355469 C 239.921875 83.734375 239.917969 82.222656 239.90625 81.820312 L 239.90625 81.804688 C 239.878906 79.6875 239.835938 77.484375 239.773438 75.199219 L 239.773438 75.191406 C 239.714844 72.671875 239.601562 69.871094 239.433594 66.785156 C 239.402344 66.191406 239.855469 65.683594 240.449219 65.652344 C 240.46875 65.648438 240.488281 65.648438 240.507812 65.648438 Z M 240.507812 65.648438 "/></g><path style=" stroke:none;fill-rule:nonzero;fill:#000000;fill-opacity:1;" d="M 249.289062 77.246094 C 249.824219 77.246094 250.289062 77.648438 250.351562 78.199219 C 250.421875 78.789062 250 79.320312 249.394531 79.390625 C 249.277344 79.40625 249.082031 79.414062 248.804688 79.425781 L 248.777344 79.425781 C 247.707031 79.433594 246.953125 79.445312 246.515625 79.464844 L 246.507812 79.464844 C 245.636719 79.5 244.796875 79.539062 243.988281 79.589844 L 243.949219 79.59375 C 243.4375 79.609375 240.554688 79.832031 235.296875 80.265625 C 235.269531 80.265625 235.238281 80.265625 235.210938 80.265625 C 234.65625 80.265625 234.1875 79.839844 234.140625 79.28125 C 234.09375 78.6875 234.53125 78.167969 235.125 78.121094 C 240.285156 77.695312 243.191406 77.46875 243.84375 77.445312 L 243.851562 77.445312 C 244.671875 77.394531 245.527344 77.351562 246.417969 77.316406 C 246.875 77.296875 247.640625 77.28125 248.714844 77.273438 L 248.746094 77.273438 C 248.964844 77.265625 249.105469 77.261719 249.160156 77.253906 L 249.179688 77.253906 C 249.214844 77.25 249.253906 77.246094 249.289062 77.246094 Z M 249.289062 77.246094 "/><path style=" stroke:none;fill-rule:nonzero;fill:#000000;fill-opacity:1;" d="M 210.023438 120.96875 C 210.585938 120.96875 211.058594 121.410156 211.09375 121.980469 C 211.53125 129.226562 211.777344 134.464844 211.832031 137.695312 C 211.867188 139.082031 211.875 140.617188 211.859375 142.304688 L 211.859375 142.308594 C 211.847656 143.226562 211.835938 143.859375 211.828125 144.207031 C 211.773438 146.234375 211.730469 147.746094 211.695312 148.742188 C 211.6875 149.28125 211.6875 149.636719 211.691406 149.800781 C 211.703125 150.394531 211.230469 150.886719 210.636719 150.898438 C 210.632812 150.898438 210.625 150.898438 210.617188 150.898438 C 210.035156 150.898438 209.558594 150.429688 209.546875 149.84375 C 209.542969 149.660156 209.542969 149.277344 209.550781 148.691406 L 209.550781 148.667969 C 209.582031 147.691406 209.628906 146.1875 209.683594 144.148438 C 209.691406 143.824219 209.699219 143.199219 209.710938 142.28125 C 209.726562 140.609375 209.71875 139.097656 209.6875 137.738281 L 209.6875 137.734375 C 209.632812 134.535156 209.386719 129.328125 208.953125 122.109375 C 208.914062 121.515625 209.367188 121.007812 209.957031 120.972656 C 209.980469 120.96875 210 120.96875 210.023438 120.96875 Z M 210.023438 120.96875 "/><path style=" stroke:none;fill-rule:nonzero;fill:#000000;fill-opacity:1;" d="M 201.875 134.027344 C 201.910156 134.027344 201.949219 134.03125 201.984375 134.035156 C 204.761719 134.324219 206.867188 134.511719 208.300781 134.589844 L 208.308594 134.59375 C 209.25 134.652344 210.316406 134.703125 211.503906 134.738281 L 211.511719 134.738281 C 212.058594 134.753906 212.621094 134.769531 213.203125 134.777344 L 213.210938 134.777344 C 213.425781 134.785156 214.164062 134.796875 215.425781 134.8125 L 215.429688 134.8125 C 215.640625 134.8125 215.828125 134.820312 216 134.824219 L 216.003906 134.824219 C 216.613281 134.847656 217.074219 134.90625 217.390625 134.996094 C 217.960938 135.15625 218.289062 135.753906 218.128906 136.324219 C 217.992188 136.796875 217.5625 137.105469 217.097656 137.105469 C 217 137.105469 216.898438 137.089844 216.800781 137.0625 C 216.652344 137.019531 216.363281 136.992188 215.925781 136.976562 C 215.761719 136.96875 215.589844 136.964844 215.410156 136.960938 L 215.398438 136.960938 C 214.148438 136.945312 213.402344 136.9375 213.160156 136.929688 L 213.164062 136.929688 C 212.558594 136.917969 211.984375 136.90625 211.441406 136.886719 L 211.4375 136.886719 C 210.226562 136.851562 209.140625 136.800781 208.179688 136.738281 C 206.714844 136.65625 204.574219 136.46875 201.761719 136.171875 C 201.175781 136.113281 200.746094 135.582031 200.808594 134.992188 C 200.863281 134.4375 201.332031 134.027344 201.875 134.027344 Z M 201.875 134.027344 "/><path style=" stroke:none;fill-rule:nonzero;fill:#000000;fill-opacity:1;" d="M 290.4375 213.167969 C 290.984375 213.167969 291.453125 213.589844 291.503906 214.148438 C 292.917969 229.871094 293.71875 240.390625 293.902344 245.707031 C 294.027344 248.605469 294.089844 252.195312 294.089844 256.472656 L 294.089844 256.480469 C 294.050781 261.675781 293.964844 265.910156 293.839844 269.191406 C 293.832031 269.609375 293.835938 270.007812 293.851562 270.394531 C 293.875 270.984375 293.414062 271.488281 292.824219 271.511719 C 292.808594 271.511719 292.792969 271.511719 292.777344 271.511719 C 292.207031 271.511719 291.730469 271.058594 291.707031 270.480469 C 291.6875 270.046875 291.683594 269.597656 291.691406 269.128906 L 291.695312 269.109375 C 291.820312 265.847656 291.902344 261.636719 291.945312 256.472656 C 291.945312 252.21875 291.882812 248.65625 291.757812 245.792969 L 291.757812 245.78125 C 291.574219 240.507812 290.777344 230.027344 289.367188 214.339844 C 289.3125 213.75 289.75 213.226562 290.339844 213.171875 C 290.371094 213.167969 290.40625 213.167969 290.4375 213.167969 Z M 290.4375 213.167969 "/><path style=" stroke:none;fill-rule:nonzero;fill:#000000;fill-opacity:1;" d="M 293.023438 213.339844 Z M 263.46875 164.867188 C 263.503906 164.867188 263.535156 164.867188 263.570312 164.871094 C 267.382812 165.230469 269.671875 165.925781 270.4375 166.960938 C 270.640625 167.238281 270.765625 167.539062 270.804688 167.859375 L 270.835938 167.859375 C 275.445312 177.167969 278.355469 182.882812 279.558594 185.003906 L 279.570312 185.023438 C 282.433594 190.332031 287.191406 198.574219 293.84375 209.75 L 293.855469 209.765625 C 294.742188 211.3125 295.179688 212.480469 295.167969 213.273438 C 295.167969 213.28125 295.167969 213.289062 295.171875 213.296875 L 295.171875 213.300781 C 295.183594 213.992188 294.898438 214.527344 294.316406 214.90625 C 293.851562 215.207031 293.195312 215.367188 292.34375 215.382812 L 292.273438 215.382812 C 287.363281 215.15625 281.945312 215.042969 276.019531 215.042969 C 272.054688 215.042969 267.863281 215.09375 263.445312 215.195312 C 263.433594 215.195312 263.425781 215.195312 263.417969 215.195312 C 262.835938 215.195312 262.359375 214.730469 262.347656 214.144531 C 262.332031 213.550781 262.800781 213.058594 263.394531 213.042969 C 267.828125 212.941406 272.035156 212.890625 276.015625 212.890625 C 281.964844 212.890625 287.40625 213.003906 292.339844 213.234375 C 292.625 213.226562 292.839844 213.203125 292.984375 213.167969 L 293.019531 213.167969 C 292.988281 212.75 292.648438 211.980469 292.003906 210.855469 C 285.339844 199.660156 280.570312 191.398438 277.695312 186.070312 C 276.457031 183.890625 273.484375 178.050781 268.785156 168.546875 C 268.734375 168.453125 268.703125 168.347656 268.6875 168.242188 L 268.714844 168.242188 C 268.328125 167.722656 266.546875 167.3125 263.371094 167.011719 C 262.78125 166.957031 262.347656 166.433594 262.402344 165.84375 C 262.453125 165.285156 262.921875 164.867188 263.46875 164.867188 Z M 263.46875 164.867188 "/><path style="fill:none;stroke-width:5;stroke-linecap:butt;stroke-linejoin:miter;stroke:#aad1e7;stroke-opacity:1;stroke-miterlimit:4;" d="M 0.00122352 2.497658 L 35.78263 2.49795 " transform="matrix(0.749669,-0.0222768,0.0222768,0.749669,57.232506,270.545579)"/><path style="fill:none;stroke-width:6;stroke-linecap:butt;stroke-linejoin:miter;stroke:#aad1e7;stroke-opacity:1;stroke-miterlimit:4;" d="M 0.00247023 2.998553 L 31.776999 2.997511 " transform="matrix(0.749912,0.0114577,-0.0114577,0.749912,293.751254,269.806007)"/><g clip-rule="nonzero" clip-path="url(#ed91c6b77c)"><g clip-rule="nonzero" clip-path="url(#5a30cbd51b)"><path style=" stroke:none;fill-rule:nonzero;fill:#aad1e7;fill-opacity:1;" d="M 54.785156 270.429688 L 58.039062 270.429688 L 58.039062 273.683594 L 54.785156 273.683594 Z M 54.785156 270.429688 "/></g></g><path style="fill:none;stroke-width:6;stroke-linecap:butt;stroke-linejoin:miter;stroke:#ffffff;stroke-opacity:1;stroke-miterlimit:4;" d="M -0.00103861 3.002033 L 27.636693 3.000549 " transform="matrix(0.665295,-0.346241,0.346241,0.665295,53.746419,275.689904)"/><g clip-rule="nonzero" clip-path="url(#3dbc6941d2)"><g clip-rule="nonzero" clip-path="url(#6d1c66a4de)"><path style=" stroke:none;fill-rule:nonzero;fill:#aad1e7;fill-opacity:1;" d="M 316.558594 270.429688 L 320.578125 270.429688 L 320.578125 274.445312 L 316.558594 274.445312 Z M 316.558594 270.429688 "/></g></g><path style="fill:none;stroke-width:6;stroke-linecap:butt;stroke-linejoin:miter;stroke:#ffffff;stroke-opacity:1;stroke-miterlimit:4;" d="M 0.00134597 2.998642 L 58.729946 2.998381 " transform="matrix(0.393098,-0.638728,0.638728,0.393098,307.115404,293.947099)"/><path style="fill:none;stroke-width:6;stroke-linecap:butt;stroke-linejoin:miter;stroke:#ffffff;stroke-opacity:1;stroke-miterlimit:4;" d="M 0.00163284 3.000558 L 33.174634 3.000219 " transform="matrix(0.680614,0.305696,-0.305696,0.680614,301.79896,265.441653)"/></g></svg>