<svg xmlns="http://www.w3.org/2000/svg" xmlns:xlink="http://www.w3.org/1999/xlink" width="500" zoomAndPan="magnify" viewBox="0 0 375 374.999991" height="500" preserveAspectRatio="xMidYMid meet" version="1.2"><defs><clipPath id="314d5b7629"><path d="M 29.871094 29.871094 L 344.871094 29.871094 L 344.871094 344.871094 L 29.871094 344.871094 Z M 29.871094 29.871094 "/></clipPath><clipPath id="0a811db2f7"><path d="M 36 29.871094 L 338 29.871094 L 338 344.871094 L 36 344.871094 Z M 36 29.871094 "/></clipPath><clipPath id="91d83fbcc0"><path d="M 184 123 L 232 123 L 232 147 L 184 147 Z M 184 123 "/></clipPath><clipPath id="26201221b8"><path d="M 185.265625 122.585938 L 232.28125 124.148438 L 231.539062 146.515625 L 184.523438 144.957031 Z M 185.265625 122.585938 "/></clipPath><clipPath id="dc9b8e094e"><path d="M 208.742188 123.367188 L 231.472656 146.515625 L 184.523438 144.957031 Z M 208.742188 123.367188 "/></clipPath><clipPath id="b08de279ee"><path d="M 109.878906 143.890625 L 265.859375 143.890625 L 265.859375 236.207031 L 109.878906 236.207031 Z M 109.878906 143.890625 "/></clipPath><clipPath id="d070161398"><path d="M 261 142 L 288 142 L 288 192 L 261 192 Z M 261 142 "/></clipPath><clipPath id="3d5130a08d"><path d="M 251.382812 145.382812 L 277.4375 139.4375 L 287.90625 185.335938 L 261.855469 191.277344 Z M 251.382812 145.382812 "/></clipPath><clipPath id="b7d36f4a0d"><path d="M 264.410156 142.410156 L 287.898438 185.296875 L 261.847656 191.238281 Z M 264.410156 142.410156 "/></clipPath><clipPath id="e14e379c2d"><path d="M 113 139 L 185 139 L 185 146 L 113 146 Z M 113 139 "/></clipPath><clipPath id="bf85350a18"><path d="M 113.726562 139.4375 L 184.679688 141.605469 L 184.550781 145.878906 L 113.59375 143.714844 Z M 113.726562 139.4375 "/></clipPath><clipPath id="8c54fd5fb7"><path d="M 220.675781 69.246094 L 255.953125 69.246094 L 255.953125 102.085938 L 220.675781 102.085938 Z M 220.675781 69.246094 "/></clipPath><clipPath id="02ce8dbbe9"><path d="M 238.277344 69.246094 L 255.878906 102.085938 L 220.675781 102.085938 Z M 238.277344 69.246094 "/></clipPath><clipPath id="867c0eb8a7"><path d="M 224.128906 99.445312 L 254.917969 99.445312 L 254.917969 143.890625 L 224.128906 143.890625 Z M 224.128906 99.445312 "/></clipPath><clipPath id="8b27b6c7cb"><path d="M 262 187 L 287 187 L 287 238 L 262 238 Z M 262 187 "/></clipPath><clipPath id="20d88bb5eb"><path d="M 262.53125 187.824219 L 285.164062 187.226562 L 286.480469 236.992188 L 263.847656 237.589844 Z M 262.53125 187.824219 "/></clipPath><clipPath id="6dc65d24c6"><path d="M 88 185 L 132 185 L 132 240 L 88 240 Z M 88 185 "/></clipPath><clipPath id="a60eee3ffc"><path d="M 88.746094 186.757812 L 129.472656 185.558594 L 131.015625 238.0625 L 90.285156 239.261719 Z M 88.746094 186.757812 "/></clipPath><clipPath id="3409de8cde"><path d="M 87 139 L 125 139 L 125 191 L 87 191 Z M 87 139 "/></clipPath><clipPath id="9e57303f93"><path d="M 92.75 137.136719 L 129.621094 141.132812 L 124.308594 190.105469 L 87.4375 186.105469 Z M 92.75 137.136719 "/></clipPath><clipPath id="c27e7cde00"><path d="M 111.183594 139.132812 L 124.316406 190.050781 L 87.441406 186.050781 Z M 111.183594 139.132812 "/></clipPath><clipPath id="3793003af9"><path d="M 111.101562 140.011719 L 171.703125 140.011719 L 171.703125 158.3125 L 111.101562 158.3125 Z M 111.101562 140.011719 "/></clipPath><clipPath id="ed88816d77"><path d="M 63 236 L 312.386719 236 L 312.386719 242 L 63 242 Z M 63 236 "/></clipPath><clipPath id="ef15600348"><path d="M 236 45.507812 L 240 45.507812 L 240 70 L 236 70 Z M 236 45.507812 "/></clipPath><clipPath id="a0464d10d9"><path d="M 227 247 L 259 247 L 259 295 L 227 295 Z M 227 247 "/></clipPath><clipPath id="50e8ee86d7"><path d="M 228.984375 246.339844 L 259.628906 248.886719 L 255.714844 295.972656 L 225.070312 293.425781 Z M 228.984375 246.339844 "/></clipPath><clipPath id="43b6ebf611"><path d="M 228.984375 246.339844 L 259.628906 248.886719 L 255.714844 295.972656 L 225.070312 293.425781 Z M 228.984375 246.339844 "/></clipPath></defs><g id="d13013dd8f"><g clip-rule="nonzero" clip-path="url(#314d5b7629)"><path style=" stroke:none;fill-rule:nonzero;fill:#aad1e7;fill-opacity:1;" d="M 187.367188 29.871094 C 274.371094 29.871094 344.851562 100.355469 344.851562 187.359375 C 344.851562 274.363281 274.371094 344.847656 187.367188 344.847656 C 100.359375 344.847656 29.871094 274.363281 29.871094 187.359375 C 29.871094 100.355469 100.359375 29.871094 187.367188 29.871094 Z M 187.367188 29.871094 "/></g><g clip-rule="nonzero" clip-path="url(#0a811db2f7)"><path style=" stroke:none;fill-rule:nonzero;fill:#ffffff;fill-opacity:1;" d="M 187.367188 29.871094 C 186.59375 29.871094 185.835938 29.917969 185.066406 29.929688 L 185.066406 133.617188 C 158.886719 133.363281 133.03125 128.796875 108.515625 120.171875 C 117.894531 88.382812 133.835938 58.644531 155.6875 33.058594 C 153.226562 33.558594 150.792969 34.125 148.378906 34.738281 C 128.136719 59.671875 113.21875 88.210938 104.199219 118.597656 C 91.261719 113.765625 78.714844 107.820312 66.722656 100.75 C 66.175781 100.429688 65.59375 100.347656 64.980469 100.507812 C 64.367188 100.667969 63.898438 101.019531 63.578125 101.5625 C 63.421875 101.828125 63.324219 102.109375 63.28125 102.410156 C 63.238281 102.710938 63.253906 103.011719 63.332031 103.304688 C 63.40625 103.601562 63.535156 103.871094 63.71875 104.113281 C 63.902344 104.355469 64.125 104.554688 64.390625 104.710938 C 76.71875 111.976562 89.625 118.078125 102.933594 123.03125 C 97.390625 143.105469 94.417969 163.941406 94.21875 185.0625 L 39.058594 185.0625 C 38.753906 185.058594 38.460938 185.117188 38.179688 185.234375 C 37.898438 185.351562 37.648438 185.519531 37.433594 185.734375 C 37.21875 185.949219 37.050781 186.195312 36.9375 186.480469 C 36.820312 186.761719 36.761719 187.054688 36.761719 187.359375 C 36.761719 187.664062 36.820312 187.957031 36.9375 188.238281 C 37.054688 188.519531 37.21875 188.765625 37.4375 188.980469 C 37.652344 189.195312 37.898438 189.359375 38.179688 189.476562 C 38.460938 189.59375 38.753906 189.652344 39.058594 189.652344 L 94.21875 189.652344 C 94.417969 210.773438 97.390625 231.609375 102.933594 251.6875 C 89.625 256.640625 76.71875 262.742188 64.390625 270.007812 C 64.128906 270.164062 63.90625 270.363281 63.722656 270.605469 C 63.539062 270.847656 63.40625 271.117188 63.332031 271.414062 C 63.253906 271.707031 63.238281 272.003906 63.28125 272.308594 C 63.324219 272.609375 63.421875 272.890625 63.578125 273.152344 C 63.730469 273.414062 63.929688 273.636719 64.171875 273.820312 C 64.417969 274.003906 64.683594 274.136719 64.980469 274.210938 C 65.273438 274.289062 65.574219 274.304688 65.875 274.261719 C 66.175781 274.21875 66.457031 274.121094 66.722656 273.96875 C 78.710938 266.902344 91.261719 260.953125 104.199219 256.117188 C 113.214844 286.507812 128.136719 315.046875 148.378906 339.976562 C 150.792969 340.589844 153.226562 341.15625 155.683594 341.65625 C 133.835938 316.074219 117.894531 286.332031 108.515625 254.542969 C 133.03125 245.917969 158.886719 241.347656 185.066406 241.09375 L 185.066406 344.789062 C 185.835938 344.796875 186.59375 344.84375 187.367188 344.84375 C 188.132812 344.84375 188.890625 344.800781 189.660156 344.789062 L 189.660156 241.09375 C 215.839844 241.347656 241.695312 245.914062 266.210938 254.539062 C 256.835938 286.332031 240.890625 316.074219 219.042969 341.660156 C 221.5 341.160156 223.933594 340.59375 226.347656 339.980469 C 246.589844 315.046875 261.511719 286.503906 270.527344 256.113281 C 283.46875 260.949219 296.015625 266.898438 308.007812 273.96875 C 308.273438 274.121094 308.554688 274.21875 308.855469 274.261719 C 309.15625 274.304688 309.453125 274.285156 309.746094 274.210938 C 310.042969 274.132812 310.308594 274.003906 310.554688 273.820312 C 310.796875 273.636719 310.992188 273.414062 311.148438 273.152344 C 311.304688 272.890625 311.402344 272.609375 311.445312 272.308594 C 311.488281 272.007812 311.472656 271.707031 311.394531 271.414062 C 311.320312 271.117188 311.191406 270.851562 311.007812 270.605469 C 310.824219 270.363281 310.601562 270.164062 310.339844 270.007812 C 298.011719 262.742188 285.101562 256.636719 271.789062 251.6875 C 277.335938 231.609375 280.308594 210.773438 280.507812 189.652344 L 335.664062 189.652344 C 335.96875 189.652344 336.261719 189.59375 336.542969 189.476562 C 336.824219 189.359375 337.074219 189.195312 337.289062 188.980469 C 337.503906 188.765625 337.671875 188.519531 337.789062 188.238281 C 337.90625 187.957031 337.964844 187.664062 337.964844 187.359375 C 337.964844 187.054688 337.90625 186.761719 337.789062 186.480469 C 337.671875 186.199219 337.507812 185.949219 337.289062 185.734375 C 337.074219 185.519531 336.828125 185.351562 336.546875 185.234375 C 336.261719 185.117188 335.96875 185.058594 335.664062 185.0625 L 280.507812 185.0625 C 280.304688 163.9375 277.335938 143.105469 271.789062 123.027344 C 285.101562 118.078125 298.011719 111.972656 310.339844 104.703125 C 310.601562 104.546875 310.824219 104.347656 311.007812 104.105469 C 311.1875 103.863281 311.316406 103.59375 311.394531 103.300781 C 311.46875 103.007812 311.484375 102.710938 311.441406 102.40625 C 311.402344 102.105469 311.300781 101.824219 311.148438 101.5625 C 310.992188 101.300781 310.796875 101.082031 310.550781 100.898438 C 310.308594 100.714844 310.042969 100.585938 309.746094 100.507812 C 309.453125 100.433594 309.15625 100.414062 308.855469 100.457031 C 308.554688 100.5 308.273438 100.597656 308.007812 100.75 C 296.015625 107.820312 283.46875 113.769531 270.527344 118.601562 C 261.507812 88.210938 246.585938 59.667969 226.347656 34.738281 C 223.925781 34.121094 221.484375 33.554688 219.019531 33.054688 C 240.875 58.640625 256.824219 88.382812 266.203125 120.175781 C 241.691406 128.800781 215.839844 133.363281 189.65625 133.617188 L 189.65625 29.929688 C 188.890625 29.917969 188.132812 29.871094 187.367188 29.871094 Z M 107.210938 124.585938 C 132.148438 133.332031 158.441406 137.960938 185.066406 138.214844 L 185.066406 185.0625 L 98.808594 185.0625 C 99.007812 164.480469 101.847656 144.164062 107.210938 124.585938 Z M 267.507812 124.585938 C 272.875 144.164062 275.714844 164.480469 275.914062 185.0625 L 189.660156 185.0625 L 189.660156 138.214844 C 216.28125 137.960938 242.574219 133.332031 267.507812 124.585938 Z M 98.808594 189.652344 L 185.066406 189.652344 L 185.066406 236.503906 C 158.441406 236.757812 132.148438 241.386719 107.210938 250.128906 C 101.847656 230.550781 99.007812 210.234375 98.808594 189.652344 Z M 189.660156 189.652344 L 275.917969 189.652344 C 275.71875 210.230469 272.878906 230.550781 267.515625 250.128906 C 242.578125 241.382812 216.285156 236.757812 189.660156 236.503906 Z M 189.660156 189.652344 "/></g><g clip-rule="nonzero" clip-path="url(#91d83fbcc0)"><g clip-rule="nonzero" clip-path="url(#26201221b8)"><g clip-rule="nonzero" clip-path="url(#dc9b8e094e)"><path style=" stroke:none;fill-rule:nonzero;fill:#f8f4f4;fill-opacity:1;" d="M 185.265625 122.585938 L 232.195312 124.144531 L 231.453125 146.515625 L 184.523438 144.957031 Z M 185.265625 122.585938 "/></g></g></g><g clip-rule="nonzero" clip-path="url(#b08de279ee)"><path style=" stroke:none;fill-rule:nonzero;fill:#f8f4f4;fill-opacity:1;" d="M 109.878906 143.890625 L 266.03125 143.890625 L 266.03125 236.207031 L 109.878906 236.207031 Z M 109.878906 143.890625 "/></g><g clip-rule="nonzero" clip-path="url(#d070161398)"><g clip-rule="nonzero" clip-path="url(#3d5130a08d)"><g clip-rule="nonzero" clip-path="url(#b7d36f4a0d)"><path style=" stroke:none;fill-rule:nonzero;fill:#f8f4f4;fill-opacity:1;" d="M 251.382812 145.382812 L 277.4375 139.4375 L 287.90625 185.335938 L 261.855469 191.277344 Z M 251.382812 145.382812 "/></g></g></g><g clip-rule="nonzero" clip-path="url(#e14e379c2d)"><g clip-rule="nonzero" clip-path="url(#bf85350a18)"><path style=" stroke:none;fill-rule:nonzero;fill:#f8f4f4;fill-opacity:1;" d="M 113.726562 139.4375 L 184.6875 141.605469 L 184.558594 145.878906 L 113.59375 143.714844 Z M 113.726562 139.4375 "/></g></g><g clip-rule="nonzero" clip-path="url(#8c54fd5fb7)"><g clip-rule="nonzero" clip-path="url(#02ce8dbbe9)"><path style=" stroke:none;fill-rule:nonzero;fill:#f8f4f4;fill-opacity:1;" d="M 220.675781 69.246094 L 255.824219 69.246094 L 255.824219 102.085938 L 220.675781 102.085938 Z M 220.675781 69.246094 "/></g></g><g clip-rule="nonzero" clip-path="url(#867c0eb8a7)"><path style=" stroke:none;fill-rule:nonzero;fill:#f8f4f4;fill-opacity:1;" d="M 224.128906 99.445312 L 254.917969 99.445312 L 254.917969 143.945312 L 224.128906 143.945312 Z M 224.128906 99.445312 "/></g><g clip-rule="nonzero" clip-path="url(#8b27b6c7cb)"><g clip-rule="nonzero" clip-path="url(#20d88bb5eb)"><path style=" stroke:none;fill-rule:nonzero;fill:#f8f4f4;fill-opacity:1;" d="M 262.53125 187.824219 L 285.164062 187.226562 L 286.480469 237 L 263.847656 237.597656 Z M 262.53125 187.824219 "/></g></g><g clip-rule="nonzero" clip-path="url(#6dc65d24c6)"><g clip-rule="nonzero" clip-path="url(#a60eee3ffc)"><path style=" stroke:none;fill-rule:nonzero;fill:#f8f4f4;fill-opacity:1;" d="M 88.746094 186.757812 L 129.472656 185.558594 L 131.015625 238.0625 L 90.285156 239.261719 Z M 88.746094 186.757812 "/></g></g><g clip-rule="nonzero" clip-path="url(#3409de8cde)"><g clip-rule="nonzero" clip-path="url(#9e57303f93)"><g clip-rule="nonzero" clip-path="url(#c27e7cde00)"><path style=" stroke:none;fill-rule:nonzero;fill:#f8f4f4;fill-opacity:1;" d="M 92.75 137.136719 L 129.621094 141.132812 L 124.308594 190.105469 L 87.4375 186.105469 Z M 92.75 137.136719 "/></g></g></g><g clip-rule="nonzero" clip-path="url(#3793003af9)"><path style=" stroke:none;fill-rule:nonzero;fill:#f8f4f4;fill-opacity:1;" d="M 111.101562 140.011719 L 171.71875 140.011719 L 171.71875 158.3125 L 111.101562 158.3125 Z M 111.101562 140.011719 "/></g><path style="fill:none;stroke-width:4;stroke-linecap:butt;stroke-linejoin:miter;stroke:#f8f4f4;stroke-opacity:1;stroke-miterlimit:4;" d="M -0.000518571 1.999939 L 47.363868 2.000168 " transform="matrix(0.320567,-0.671738,0.671738,0.320567,93.246574,174.464007)"/><path style="fill:none;stroke-width:4;stroke-linecap:butt;stroke-linejoin:miter;stroke:#f8f4f4;stroke-opacity:1;stroke-miterlimit:4;" d="M 0.00279656 2.001743 L 7.210827 1.99821 " transform="matrix(0.725611,0.0686389,-0.0686389,0.725611,89.217399,184.914509)"/><path style="fill:none;stroke-width:4;stroke-linecap:butt;stroke-linejoin:miter;stroke:#f8f4f4;stroke-opacity:1;stroke-miterlimit:4;" d="M 0.0011196 1.99658 L 23.180803 2.002473 " transform="matrix(0.324231,-0.67012,0.67012,0.324231,92.700752,173.802615)"/><path style="fill:none;stroke-width:4;stroke-linecap:butt;stroke-linejoin:miter;stroke:#f8f4f4;stroke-opacity:1;stroke-miterlimit:4;" d="M 0.00191705 2.000495 L 41.403059 2.000495 " transform="matrix(0.742922,0.00000000000000102,-0.00000000000000102,0.742922,129.701701,233.912226)"/><path style="fill:none;stroke-width:4;stroke-linecap:butt;stroke-linejoin:miter;stroke:#f8f4f4;stroke-opacity:1;stroke-miterlimit:4;" d="M -0.00244787 2.001741 L 35.0845 1.997367 " transform="matrix(0.746576,0.0511938,-0.0511938,0.746576,259.104304,233.915829)"/><path style="fill:none;stroke-width:4;stroke-linecap:butt;stroke-linejoin:miter;stroke:#f8f4f4;stroke-opacity:1;stroke-miterlimit:4;" d="M -0.00144379 1.998137 L 16.464615 1.997597 " transform="matrix(0.717626,-0.130216,0.130216,0.717626,271.033816,187.159646)"/><path style="fill:none;stroke-width:4;stroke-linecap:butt;stroke-linejoin:miter;stroke:#f8f4f4;stroke-opacity:1;stroke-miterlimit:4;" d="M 0.000872834 1.999243 L 49.402 1.999243 " transform="matrix(0.744068,0,0,0.744068,228.401694,141.551489)"/><path style="fill:none;stroke-width:4;stroke-linecap:butt;stroke-linejoin:miter;stroke:#f8f4f4;stroke-opacity:1;stroke-miterlimit:4;" d="M -0.00233058 1.999568 L 17.721038 1.99881 " transform="matrix(0.744952,0.0868699,-0.0868699,0.744952,250.925438,138.522339)"/><path style="fill:none;stroke-width:4;stroke-linecap:butt;stroke-linejoin:miter;stroke:#f8f4f4;stroke-opacity:1;stroke-miterlimit:4;" d="M 0.00105359 2.001393 L 47.148957 2.001748 " transform="matrix(0.32038,-0.675652,0.675652,0.32038,221.495073,101.195444)"/><path style="fill:none;stroke-width:4;stroke-linecap:butt;stroke-linejoin:miter;stroke:#f8f4f4;stroke-opacity:1;stroke-miterlimit:4;" d="M 0.00045324 2.002036 L 15.963657 2.000579 " transform="matrix(-0.159235,-0.732901,0.732901,-0.159235,223.923403,112.241001)"/><g clip-rule="nonzero" clip-path="url(#ed88816d77)"><path style=" stroke:none;fill-rule:nonzero;fill:#000000;fill-opacity:1;" d="M 220.910156 236.050781 C 221.476562 236.050781 222.046875 236.050781 222.613281 236.050781 L 222.617188 236.050781 C 235.007812 236.109375 245.296875 236.316406 253.488281 236.667969 L 253.5 236.671875 C 258.003906 236.835938 263.519531 237.125 270.042969 237.53125 L 270.054688 237.53125 L 300.019531 239.652344 L 300.03125 239.652344 C 302.75 239.78125 305.058594 239.84375 306.957031 239.84375 C 308.921875 239.84375 310.445312 239.777344 311.519531 239.640625 C 311.5625 239.632812 311.605469 239.628906 311.648438 239.628906 C 312.148438 239.628906 312.585938 240.003906 312.648438 240.511719 C 312.71875 241.066406 312.328125 241.570312 311.777344 241.644531 C 310.621094 241.789062 309.007812 241.863281 306.9375 241.863281 C 304.996094 241.863281 302.648438 241.800781 299.902344 241.671875 L 299.878906 241.667969 L 269.921875 239.546875 L 269.917969 239.546875 C 263.402344 239.140625 257.898438 238.855469 253.410156 238.6875 L 253.382812 238.6875 C 245.21875 238.335938 234.960938 238.128906 222.609375 238.070312 L 222.613281 238.070312 C 222.042969 238.070312 221.476562 238.070312 220.90625 238.070312 C 209.878906 238.070312 198.882812 238.175781 187.925781 238.386719 C 171.414062 238.703125 141.445312 239.351562 98.023438 240.335938 C 87.378906 240.566406 76.042969 240.722656 64.019531 240.800781 C 64.015625 240.800781 64.015625 240.800781 64.011719 240.800781 C 63.457031 240.800781 63.007812 240.351562 63.003906 239.796875 C 63 239.238281 63.449219 238.785156 64.007812 238.78125 C 76.015625 238.703125 87.339844 238.546875 97.980469 238.316406 C 141.375 237.332031 171.34375 236.683594 187.886719 236.367188 C 198.859375 236.15625 209.867188 236.050781 220.910156 236.050781 Z M 220.910156 236.050781 "/></g><path style=" stroke:none;fill-rule:nonzero;fill:#000000;fill-opacity:1;" d="M 208.574219 124.171875 C 209.691406 124.171875 211.402344 125.175781 213.707031 127.183594 L 213.738281 127.183594 C 214.648438 127.867188 220.550781 133.328125 231.4375 143.570312 C 231.460938 143.589844 231.480469 143.609375 231.496094 143.625 L 231.507812 143.632812 C 250.144531 161.757812 261.195312 173.003906 264.65625 177.378906 C 265.003906 177.816406 264.929688 178.449219 264.492188 178.796875 C 264.304688 178.945312 264.085938 179.015625 263.867188 179.015625 C 263.566406 179.015625 263.273438 178.886719 263.074219 178.632812 C 259.667969 174.332031 248.679688 163.148438 230.109375 145.09375 C 230.085938 145.070312 230.070312 145.054688 230.054688 145.039062 C 219.539062 135.152344 213.742188 129.773438 212.660156 128.902344 L 212.691406 128.902344 C 212.824219 128.96875 212.953125 129 213.078125 129 C 213.238281 129 213.398438 128.945312 213.554688 128.835938 L 213.519531 128.835938 C 213.503906 128.847656 213.480469 128.859375 213.460938 128.867188 C 213.332031 128.925781 213.195312 128.957031 213.058594 128.957031 C 212.808594 128.957031 212.554688 128.859375 212.332031 128.660156 L 212.324219 128.660156 C 210.4375 127.015625 209.207031 126.191406 208.640625 126.1875 L 208.609375 126.1875 L 208.519531 126.21875 C 200.605469 128.242188 182.394531 147.488281 153.890625 183.957031 C 153.691406 184.210938 153.398438 184.34375 153.097656 184.34375 C 152.878906 184.34375 152.660156 184.273438 152.476562 184.128906 C 152.035156 183.785156 151.957031 183.152344 152.300781 182.710938 C 180.90625 146.113281 199.425781 126.644531 207.863281 124.300781 L 207.894531 124.300781 C 208.0625 124.234375 208.242188 124.191406 208.4375 124.175781 C 208.484375 124.171875 208.527344 124.171875 208.574219 124.171875 Z M 208.574219 124.171875 "/><path style=" stroke:none;fill-rule:nonzero;fill:#000000;fill-opacity:1;" d="M 256.9375 174.761719 C 257.492188 174.761719 257.945312 175.210938 257.949219 175.765625 C 257.976562 180.320312 258.023438 183.625 258.089844 185.675781 L 258.089844 185.683594 L 258.246094 191.542969 C 258.558594 202.25 258.789062 209.789062 258.933594 214.15625 C 258.957031 214.832031 258.980469 215.90625 259.011719 217.371094 C 259.050781 219.046875 259.066406 221.21875 259.0625 223.886719 C 259.0625 224.414062 259.054688 225.546875 259.046875 227.28125 L 259.046875 227.289062 C 258.996094 231.457031 258.976562 233.875 258.984375 234.542969 L 258.984375 234.546875 C 258.996094 235.726562 259.023438 236.507812 259.0625 236.894531 C 259.125 237.449219 258.722656 237.949219 258.167969 238.007812 C 258.132812 238.011719 258.09375 238.015625 258.058594 238.015625 C 257.550781 238.015625 257.113281 237.628906 257.058594 237.113281 C 257.007812 236.664062 256.976562 235.816406 256.964844 234.566406 C 256.957031 233.882812 256.976562 231.449219 257.027344 227.265625 L 257.027344 227.269531 C 257.039062 225.53125 257.042969 224.40625 257.042969 223.886719 L 257.042969 223.882812 C 257.046875 221.226562 257.03125 219.070312 256.992188 217.414062 C 256.964844 215.925781 256.9375 214.867188 256.914062 214.226562 L 256.914062 214.222656 C 256.769531 209.761719 256.539062 202.222656 256.226562 191.601562 L 256.226562 191.597656 L 256.074219 185.734375 L 256.074219 185.742188 C 256.003906 183.679688 255.957031 180.359375 255.929688 175.78125 C 255.925781 175.222656 256.375 174.765625 256.933594 174.761719 C 256.933594 174.761719 256.9375 174.761719 256.9375 174.761719 Z M 256.9375 174.761719 "/><path style=" stroke:none;fill-rule:nonzero;fill:#000000;fill-opacity:1;" d="M 161.316406 175.960938 C 161.828125 175.960938 162.265625 176.347656 162.320312 176.867188 C 163.238281 185.804688 163.980469 197.738281 164.550781 212.671875 L 164.550781 212.679688 C 164.722656 217.9375 164.78125 222.183594 164.722656 225.410156 C 164.640625 230.757812 164.488281 234.398438 164.265625 236.324219 L 164.265625 236.328125 C 164.207031 236.84375 163.769531 237.222656 163.265625 237.222656 C 163.226562 237.222656 163.1875 237.21875 163.148438 237.214844 C 162.59375 237.152344 162.195312 236.648438 162.253906 236.210938 L 162.261719 236.09375 C 162.476562 234.234375 162.625 230.664062 162.703125 225.375 C 162.761719 222.183594 162.703125 217.976562 162.535156 212.75 C 161.964844 197.859375 161.222656 185.96875 160.3125 177.074219 C 160.253906 176.519531 160.660156 176.023438 161.214844 175.96875 C 161.25 175.964844 161.28125 175.960938 161.316406 175.960938 Z M 161.316406 175.960938 "/><path style=" stroke:none;fill-rule:nonzero;fill:#000000;fill-opacity:1;" d="M 213.171875 163.496094 Z M 212.972656 161.511719 C 213.058594 161.511719 213.144531 161.519531 213.230469 161.535156 L 213.351562 161.566406 C 213.394531 161.578125 213.441406 161.597656 213.492188 161.617188 C 215.125 162.277344 219.054688 167.707031 225.285156 177.90625 L 225.296875 177.933594 C 228.035156 182.703125 230.234375 187.960938 231.898438 193.707031 C 235.152344 204.140625 236.335938 218.367188 235.453125 236.390625 C 235.429688 236.929688 234.980469 237.351562 234.449219 237.351562 C 234.429688 237.351562 234.414062 237.351562 234.398438 237.347656 C 233.839844 237.324219 233.410156 236.847656 233.4375 236.292969 C 234.308594 218.496094 233.152344 204.496094 229.96875 194.289062 L 229.960938 194.269531 C 228.34375 188.6875 226.210938 183.585938 223.5625 178.960938 C 217.953125 169.777344 214.433594 164.671875 213.003906 163.644531 L 212.972656 163.644531 C 212.082031 164.457031 210.46875 167.664062 208.132812 173.257812 L 208.128906 173.269531 C 204.183594 182.554688 201.234375 190.734375 199.285156 197.804688 L 199.28125 197.816406 C 196.257812 208.292969 194.496094 220.558594 194 234.613281 C 193.984375 235.160156 193.535156 235.589844 192.992188 235.589844 C 192.980469 235.589844 192.96875 235.589844 192.957031 235.589844 C 192.402344 235.570312 191.964844 235.101562 191.984375 234.542969 C 192.484375 220.324219 194.269531 207.902344 197.335938 197.269531 C 199.3125 190.109375 202.289062 181.847656 206.273438 172.480469 C 208.972656 166 210.949219 162.414062 212.199219 161.726562 C 212.457031 161.582031 212.714844 161.511719 212.972656 161.511719 Z M 212.972656 161.511719 "/><path style=" stroke:none;fill-rule:nonzero;fill:#000000;fill-opacity:1;" d="M 111.140625 142.527344 L 111.160156 142.527344 Z M 107.027344 145.148438 C 107.046875 145.503906 107.246094 145.746094 107.621094 145.878906 C 107.324219 145.738281 107.117188 145.464844 107.058594 145.148438 Z M 108.363281 145.921875 C 108.300781 145.941406 108.234375 145.957031 108.167969 145.964844 C 108.25 145.960938 108.324219 145.945312 108.398438 145.921875 Z M 111.007812 140.527344 C 111.382812 140.527344 111.730469 140.6875 112.050781 141.007812 L 112.054688 141.007812 C 112.445312 141.398438 112.796875 142.117188 113.113281 143.160156 L 113.121094 143.1875 C 114.035156 146.496094 114.96875 150.261719 115.929688 154.480469 L 115.929688 154.492188 C 117.382812 161.195312 118.722656 169.027344 119.941406 177.984375 L 119.945312 177.996094 C 120.386719 181.277344 120.730469 184.394531 120.96875 187.347656 L 120.96875 187.355469 C 122.566406 208.5625 123.644531 224.835938 124.214844 236.171875 C 124.242188 236.730469 123.8125 237.203125 123.257812 237.234375 C 123.238281 237.234375 123.222656 237.234375 123.203125 237.234375 C 122.671875 237.234375 122.222656 236.8125 122.199219 236.273438 C 121.632812 224.964844 120.550781 208.710938 118.957031 187.511719 C 118.722656 184.59375 118.382812 181.511719 117.945312 178.265625 L 117.941406 178.253906 L 117.941406 178.242188 C 116.730469 169.347656 115.402344 161.578125 113.960938 154.929688 C 113.007812 150.746094 112.082031 147.019531 111.179688 143.746094 C 111.046875 143.296875 110.921875 142.957031 110.8125 142.730469 L 110.777344 142.730469 C 110.363281 143.089844 109.746094 144 108.929688 145.457031 C 108.875 145.554688 108.804688 145.644531 108.722656 145.714844 L 108.753906 145.714844 C 108.132812 146.808594 105.371094 152.191406 100.46875 161.863281 C 94.066406 175.125 90.84375 182.398438 90.804688 183.683594 L 90.808594 183.683594 C 90.820312 183.800781 90.8125 183.917969 90.785156 184.035156 C 90.269531 186.121094 90.085938 190.449219 90.226562 197.019531 L 90.226562 197.066406 C 90.175781 199.007812 90.722656 212.445312 91.863281 237.378906 C 91.886719 237.9375 91.457031 238.410156 90.898438 238.433594 C 90.882812 238.433594 90.867188 238.433594 90.851562 238.433594 C 90.316406 238.433594 89.871094 238.011719 89.84375 237.472656 C 88.710938 212.683594 88.164062 199.210938 88.207031 197.0625 C 88.0625 190.386719 88.265625 185.90625 88.808594 183.621094 L 88.785156 183.621094 C 88.835938 182.050781 92.125 174.5 98.660156 160.96875 L 98.667969 160.949219 C 103.953125 150.523438 106.785156 145.019531 107.167969 144.441406 L 107.183594 144.441406 C 108.367188 142.328125 109.367188 141.09375 110.179688 140.734375 C 110.234375 140.710938 110.289062 140.6875 110.34375 140.671875 L 110.375 140.671875 C 110.441406 140.640625 110.507812 140.613281 110.574219 140.59375 C 110.722656 140.550781 110.867188 140.527344 111.007812 140.527344 Z M 111.007812 140.527344 "/><path style=" stroke:none;fill-rule:nonzero;fill:#000000;fill-opacity:1;" d="M 139 139.019531 C 145.84375 139.019531 151.011719 139.066406 154.503906 139.164062 C 160.894531 139.335938 166.417969 139.582031 171.074219 139.902344 C 175.03125 140.164062 179.9375 140.652344 185.804688 141.363281 C 186.359375 141.429688 186.753906 141.933594 186.683594 142.488281 C 186.625 143 186.1875 143.375 185.683594 143.375 C 185.644531 143.375 185.601562 143.371094 185.5625 143.367188 C 179.730469 142.660156 174.855469 142.175781 170.9375 141.917969 C 166.308594 141.597656 160.8125 141.355469 154.449219 141.183594 C 150.972656 141.085938 145.828125 141.039062 139.007812 141.039062 C 137 141.039062 134.851562 141.042969 132.554688 141.050781 L 132.5625 141.050781 C 125.15625 141.128906 118.421875 141.285156 112.363281 141.515625 C 112.347656 141.515625 112.335938 141.515625 112.320312 141.515625 C 111.78125 141.515625 111.335938 141.089844 111.3125 140.546875 C 111.292969 139.988281 111.726562 139.519531 112.285156 139.496094 C 118.363281 139.265625 125.113281 139.109375 132.539062 139.03125 L 132.546875 139.03125 C 134.839844 139.023438 136.992188 139.019531 139 139.019531 Z M 139 139.019531 "/><path style=" stroke:none;fill-rule:nonzero;fill:#000000;fill-opacity:1;" d="M 238.347656 68.164062 C 238.511719 68.164062 238.679688 68.191406 238.839844 68.246094 C 238.988281 68.296875 239.121094 68.382812 239.230469 68.492188 C 242.273438 71.550781 248.792969 84.363281 258.78125 106.921875 C 259.007812 107.433594 258.777344 108.027344 258.269531 108.253906 C 258.132812 108.3125 257.996094 108.339844 257.859375 108.339844 C 257.472656 108.339844 257.101562 108.117188 256.9375 107.738281 C 247.484375 86.398438 241.242188 73.9375 238.203125 70.355469 L 238.167969 70.355469 C 237.550781 70.894531 236.59375 72.421875 235.292969 74.945312 C 229.230469 87.164062 224.601562 96.921875 221.402344 104.21875 C 221.234375 104.597656 220.867188 104.824219 220.476562 104.824219 C 220.34375 104.824219 220.203125 104.792969 220.074219 104.738281 C 219.5625 104.511719 219.328125 103.917969 219.554688 103.40625 C 222.765625 96.082031 227.410156 86.292969 233.488281 74.042969 L 233.488281 74.039062 L 233.492188 74.03125 L 233.5 74.019531 C 235.246094 70.625 236.644531 68.71875 237.703125 68.296875 C 237.921875 68.207031 238.136719 68.164062 238.347656 68.164062 Z M 238.347656 68.164062 "/><path style=" stroke:none;fill-rule:nonzero;fill:#000000;fill-opacity:1;" d="M 253.964844 100.148438 C 254.503906 100.148438 254.949219 100.574219 254.972656 101.113281 C 255.445312 111.625 256.132812 124.855469 257.039062 140.816406 L 257.042969 140.902344 L 257.042969 140.910156 C 257.382812 147.960938 257.570312 152.253906 257.605469 153.785156 L 257.605469 153.773438 C 257.691406 156.605469 257.707031 159.183594 257.65625 161.511719 C 257.613281 163.300781 257.460938 166.113281 257.195312 169.945312 C 257.160156 170.476562 256.714844 170.886719 256.191406 170.886719 C 256.167969 170.886719 256.144531 170.886719 256.121094 170.882812 C 255.5625 170.84375 255.144531 170.363281 255.183594 169.808594 C 255.445312 166.003906 255.597656 163.222656 255.640625 161.464844 C 255.691406 159.179688 255.671875 156.636719 255.585938 153.835938 L 255.585938 153.828125 C 255.554688 152.328125 255.367188 148.058594 255.027344 141.015625 L 255.023438 140.929688 C 254.117188 124.957031 253.425781 111.714844 252.957031 101.203125 C 252.933594 100.648438 253.363281 100.175781 253.921875 100.152344 C 253.9375 100.148438 253.953125 100.148438 253.964844 100.148438 Z M 253.964844 100.148438 "/><path style=" stroke:none;fill-rule:nonzero;fill:#000000;fill-opacity:1;" d="M 223.367188 104.359375 C 223.902344 104.359375 224.347656 104.78125 224.375 105.320312 C 224.65625 110.835938 224.800781 113.882812 224.8125 114.460938 C 224.949219 117.8125 225.054688 121.238281 225.136719 124.742188 L 225.136719 124.746094 C 225.199219 128.019531 225.226562 130.628906 225.222656 132.5625 C 225.222656 135.261719 225.191406 136.976562 225.128906 137.710938 C 225.082031 138.234375 224.640625 138.632812 224.121094 138.632812 C 224.09375 138.632812 224.0625 138.632812 224.035156 138.628906 C 223.480469 138.582031 223.066406 138.089844 223.117188 137.535156 C 223.175781 136.859375 223.203125 135.199219 223.203125 132.5625 L 223.203125 132.558594 C 223.210938 130.648438 223.179688 128.058594 223.117188 124.789062 C 223.039062 121.304688 222.929688 117.882812 222.796875 114.523438 L 222.796875 114.503906 C 222.785156 113.945312 222.640625 110.917969 222.359375 105.421875 C 222.332031 104.863281 222.761719 104.390625 223.316406 104.363281 C 223.335938 104.359375 223.351562 104.359375 223.367188 104.359375 Z M 223.367188 104.359375 "/><g clip-rule="nonzero" clip-path="url(#ef15600348)"><path style=" stroke:none;fill-rule:nonzero;fill:#000000;fill-opacity:1;" d="M 237.390625 45.671875 C 237.925781 45.671875 238.371094 46.089844 238.398438 46.628906 C 238.558594 49.539062 238.664062 52.191406 238.71875 54.585938 L 238.71875 54.582031 C 238.777344 56.746094 238.820312 58.824219 238.84375 60.816406 C 238.855469 61.234375 238.859375 62.667969 238.859375 65.117188 C 238.863281 65.75 238.867188 66.230469 238.875 66.558594 L 238.875 66.5625 C 238.890625 67.40625 238.933594 68.125 239.007812 68.722656 L 239.011719 68.730469 C 239.078125 69.28125 238.6875 69.785156 238.132812 69.855469 C 238.089844 69.859375 238.046875 69.863281 238.007812 69.863281 C 237.503906 69.863281 237.070312 69.492188 237.011719 69.007812 L 237.011719 69.003906 L 237.007812 68.972656 C 236.921875 68.304688 236.875 67.515625 236.859375 66.605469 C 236.851562 66.257812 236.84375 65.761719 236.839844 65.121094 L 236.839844 65.117188 C 236.84375 62.65625 236.839844 61.234375 236.828125 60.859375 L 236.828125 60.839844 C 236.800781 58.855469 236.757812 56.785156 236.699219 54.636719 L 236.699219 54.632812 C 236.644531 52.269531 236.539062 49.636719 236.382812 46.738281 C 236.351562 46.179688 236.777344 45.703125 237.335938 45.671875 C 237.355469 45.671875 237.375 45.671875 237.390625 45.671875 Z M 237.390625 45.671875 "/></g><path style=" stroke:none;fill-rule:nonzero;fill:#000000;fill-opacity:1;" d="M 245.652344 56.5625 C 246.15625 56.5625 246.59375 56.941406 246.652344 57.457031 C 246.71875 58.007812 246.320312 58.511719 245.75 58.578125 C 245.640625 58.589844 245.457031 58.601562 245.195312 58.609375 L 245.171875 58.609375 C 244.164062 58.613281 243.453125 58.628906 243.042969 58.644531 L 243.035156 58.648438 C 242.214844 58.675781 241.425781 58.71875 240.664062 58.765625 L 240.632812 58.765625 C 240.148438 58.78125 237.4375 58.992188 232.492188 59.394531 C 232.464844 59.398438 232.4375 59.398438 232.410156 59.398438 C 231.890625 59.398438 231.445312 59 231.402344 58.472656 C 231.359375 57.917969 231.773438 57.429688 232.328125 57.382812 C 237.183594 56.984375 239.917969 56.773438 240.527344 56.75 L 240.539062 56.75 C 241.308594 56.699219 242.113281 56.660156 242.949219 56.628906 C 243.382812 56.609375 244.101562 56.59375 245.113281 56.589844 L 245.140625 56.589844 C 245.347656 56.582031 245.480469 56.574219 245.53125 56.570312 L 245.546875 56.570312 L 245.550781 56.566406 C 245.585938 56.566406 245.617188 56.5625 245.652344 56.5625 Z M 245.652344 56.5625 "/><path style=" stroke:none;fill-rule:nonzero;fill:#000000;fill-opacity:1;" d="M 208.714844 97.621094 C 209.246094 97.621094 209.691406 98.035156 209.722656 98.570312 C 210.132812 105.378906 210.367188 110.296875 210.417969 113.332031 C 210.449219 114.632812 210.457031 116.074219 210.441406 117.660156 L 210.441406 117.664062 C 210.429688 118.527344 210.421875 119.121094 210.414062 119.445312 C 210.363281 121.347656 210.320312 122.769531 210.289062 123.703125 C 210.28125 124.210938 210.28125 124.542969 210.285156 124.699219 C 210.296875 125.257812 209.851562 125.71875 209.296875 125.730469 C 209.289062 125.730469 209.28125 125.730469 209.273438 125.730469 C 208.726562 125.730469 208.277344 125.289062 208.265625 124.738281 C 208.261719 124.566406 208.265625 124.207031 208.269531 123.65625 L 208.269531 123.632812 C 208.300781 122.71875 208.34375 121.304688 208.394531 119.390625 C 208.402344 119.085938 208.414062 118.5 208.421875 117.636719 C 208.4375 116.070312 208.429688 114.648438 208.402344 113.371094 L 208.402344 113.367188 C 208.347656 110.363281 208.117188 105.472656 207.707031 98.695312 C 207.671875 98.136719 208.097656 97.65625 208.652344 97.625 C 208.675781 97.625 208.695312 97.621094 208.714844 97.621094 Z M 208.714844 97.621094 "/><path style=" stroke:none;fill-rule:nonzero;fill:#000000;fill-opacity:1;" d="M 201.050781 109.886719 C 201.085938 109.886719 201.121094 109.886719 201.15625 109.890625 C 203.765625 110.164062 205.746094 110.339844 207.097656 110.414062 L 207.105469 110.417969 C 207.988281 110.472656 208.992188 110.519531 210.109375 110.554688 L 210.113281 110.554688 C 210.628906 110.570312 211.160156 110.582031 211.707031 110.59375 L 211.714844 110.59375 C 211.917969 110.597656 212.609375 110.605469 213.796875 110.621094 L 213.800781 110.621094 C 214 110.625 214.175781 110.628906 214.335938 110.632812 L 214.339844 110.636719 C 214.914062 110.65625 215.351562 110.710938 215.644531 110.792969 C 216.183594 110.945312 216.492188 111.507812 216.339844 112.042969 C 216.214844 112.488281 215.808594 112.777344 215.371094 112.777344 C 215.277344 112.777344 215.183594 112.761719 215.09375 112.738281 C 214.953125 112.695312 214.679688 112.667969 214.265625 112.652344 C 214.113281 112.648438 213.953125 112.644531 213.78125 112.640625 L 213.773438 112.640625 C 212.597656 112.628906 211.894531 112.617188 211.667969 112.613281 C 211.101562 112.601562 210.5625 112.585938 210.046875 112.574219 L 210.046875 112.570312 C 208.910156 112.539062 207.886719 112.492188 206.980469 112.433594 C 205.601562 112.355469 203.589844 112.175781 200.945312 111.902344 C 200.390625 111.84375 199.988281 111.347656 200.046875 110.792969 C 200.101562 110.273438 200.539062 109.886719 201.050781 109.886719 Z M 201.050781 109.886719 "/><path style=" stroke:none;fill-rule:nonzero;fill:#000000;fill-opacity:1;" d="M 284.359375 184.207031 C 284.875 184.207031 285.316406 184.601562 285.363281 185.125 C 286.695312 199.894531 287.445312 209.773438 287.617188 214.765625 C 287.734375 217.488281 287.796875 220.855469 287.796875 224.875 L 287.796875 224.882812 C 287.757812 229.757812 287.679688 233.738281 287.558594 236.820312 C 287.550781 237.210938 287.554688 237.585938 287.570312 237.945312 C 287.59375 238.503906 287.160156 238.976562 286.605469 238.996094 C 286.589844 239 286.578125 239 286.5625 239 C 286.023438 239 285.578125 238.574219 285.554688 238.03125 C 285.539062 237.621094 285.53125 237.199219 285.539062 236.761719 L 285.542969 236.742188 C 285.660156 233.679688 285.738281 229.726562 285.777344 224.875 C 285.777344 220.878906 285.71875 217.535156 285.601562 214.84375 L 285.601562 214.835938 C 285.429688 209.882812 284.679688 200.039062 283.351562 185.308594 C 283.304688 184.753906 283.710938 184.261719 284.269531 184.210938 C 284.296875 184.207031 284.328125 184.207031 284.359375 184.207031 Z M 284.359375 184.207031 "/><path style=" stroke:none;fill-rule:nonzero;fill:#000000;fill-opacity:1;" d="M 286.792969 184.367188 Z M 258.992188 138.847656 C 259.023438 138.847656 259.054688 138.847656 259.085938 138.851562 C 262.671875 139.1875 264.824219 139.84375 265.546875 140.816406 L 265.546875 140.8125 C 265.738281 141.074219 265.855469 141.355469 265.890625 141.65625 L 265.921875 141.65625 C 270.257812 150.398438 272.992188 155.765625 274.128906 157.757812 L 274.140625 157.777344 C 276.828125 162.761719 281.304688 170.503906 287.566406 181 L 287.574219 181.011719 C 288.410156 182.464844 288.820312 183.5625 288.808594 184.308594 L 288.8125 184.308594 C 288.8125 184.3125 288.8125 184.320312 288.8125 184.328125 L 288.8125 184.332031 C 288.824219 184.980469 288.554688 185.480469 288.007812 185.839844 C 287.574219 186.125 286.953125 186.273438 286.152344 186.289062 L 286.085938 186.289062 C 281.46875 186.074219 276.371094 185.96875 270.796875 185.96875 C 267.066406 185.96875 263.125 186.015625 258.96875 186.109375 C 258.960938 186.109375 258.953125 186.109375 258.945312 186.109375 C 258.398438 186.109375 257.949219 185.671875 257.933594 185.125 C 257.921875 184.566406 258.363281 184.105469 258.921875 184.089844 C 263.09375 183.996094 267.050781 183.945312 270.792969 183.945312 C 276.390625 183.945312 281.507812 184.054688 286.148438 184.269531 C 286.417969 184.261719 286.621094 184.242188 286.757812 184.207031 L 286.789062 184.207031 C 286.757812 183.816406 286.441406 183.09375 285.832031 182.035156 C 279.5625 171.523438 275.078125 163.765625 272.375 158.757812 C 271.207031 156.710938 268.414062 151.226562 263.992188 142.304688 C 263.945312 142.214844 263.914062 142.117188 263.898438 142.019531 L 263.925781 142.019531 C 263.5625 141.527344 261.886719 141.144531 258.898438 140.863281 C 258.34375 140.8125 257.933594 140.320312 257.988281 139.761719 C 258.035156 139.238281 258.476562 138.847656 258.992188 138.847656 Z M 258.992188 138.847656 "/><path style="fill:none;stroke-width:5;stroke-linecap:butt;stroke-linejoin:miter;stroke:#aad1e7;stroke-opacity:1;stroke-miterlimit:4;" d="M -0.00157791 2.500698 L 40.213978 2.500932 " transform="matrix(0.74598,-0.0185567,0.0185567,0.74598,60.032897,238.341532)"/><path style="fill:none;stroke-width:6;stroke-linecap:butt;stroke-linejoin:miter;stroke:#aad1e7;stroke-opacity:1;stroke-miterlimit:4;" d="M -0.000868876 3.002076 L 36.692377 3.000124 " transform="matrix(0.749989,0.00408525,-0.00408525,0.749989,287.44651,237.62348)"/><g clip-rule="nonzero" clip-path="url(#a0464d10d9)"><g clip-rule="nonzero" clip-path="url(#50e8ee86d7)"><g clip-rule="nonzero" clip-path="url(#43b6ebf611)"><path style=" stroke:none;fill-rule:nonzero;fill:#a0261f;fill-opacity:1;" d="M 247.132812 251.875 C 247.589844 251.535156 247.433594 251.058594 247.4375 250.628906 C 247.441406 250.535156 247.34375 250.433594 247.355469 250.347656 C 247.421875 249.9375 247.386719 249.472656 247.335938 249.078125 C 247.285156 248.714844 247.199219 248.386719 246.957031 248.101562 C 246.914062 248.050781 246.960938 247.925781 246.964844 247.832031 C 247.054688 247.859375 247.183594 247.859375 247.230469 247.921875 C 247.378906 248.125 247.597656 248.34375 247.621094 248.570312 C 247.671875 249.097656 247.941406 249.578125 247.863281 250.140625 C 247.738281 251.042969 247.703125 251.957031 247.625 252.867188 C 247.59375 253.199219 247.628906 253.546875 247.382812 253.828125 C 247.238281 253.996094 247.601562 254.152344 247.382812 254.367188 C 247.28125 254.46875 247.3125 254.714844 247.296875 254.898438 C 247.261719 255.273438 247.269531 255.65625 247.195312 256.019531 C 247.023438 256.871094 246.847656 257.71875 246.824219 258.589844 C 246.484375 259.132812 246.628906 259.75 246.492188 260.394531 C 247.023438 260.339844 247.457031 260.53125 247.949219 260.351562 C 248.226562 260.25 248.613281 260.339844 248.925781 260.503906 C 248.222656 260.445312 247.539062 260.707031 246.832031 260.566406 C 246.527344 260.503906 246.371094 260.628906 246.316406 260.890625 C 246.289062 261.011719 246.257812 261.183594 246.46875 261.167969 C 246.75 261.148438 247.042969 261.347656 247.3125 261.117188 C 247.34375 261.089844 247.40625 261.09375 247.457031 261.09375 C 248.027344 261.085938 248.597656 261.085938 249.171875 261.070312 C 249.332031 261.066406 249.578125 260.941406 249.644531 261.007812 C 249.859375 261.230469 249.988281 260.867188 250.195312 260.984375 C 250.34375 261.066406 250.5625 261.019531 250.75 261.046875 C 250.9375 261.074219 251.113281 261.078125 251.257812 260.925781 C 251.269531 260.914062 251.308594 260.925781 251.335938 260.929688 C 252.332031 261.128906 253.339844 260.875 254.332031 261.023438 C 254.476562 261.042969 254.605469 261.148438 254.746094 261.1875 C 254.898438 261.226562 255.0625 261.257812 255.214844 261.25 C 255.671875 261.214844 255.6875 261.214844 255.621094 261.636719 C 255.605469 261.734375 255.582031 261.84375 255.519531 261.914062 C 255.402344 262.046875 255.464844 262.058594 255.589844 262.097656 C 255.78125 262.152344 255.960938 262.257812 256.15625 262.292969 C 256.417969 262.34375 256.6875 262.367188 256.957031 262.359375 C 257.160156 262.355469 257.375 262.199219 257.511719 262.5 C 257.539062 262.558594 257.691406 262.582031 257.789062 262.59375 C 257.996094 262.621094 258.203125 262.632812 258.394531 262.648438 C 258.464844 262.898438 257.902344 262.886719 258.230469 263.195312 C 258.257812 263.21875 258.242188 263.300781 258.226562 263.347656 C 258.207031 263.40625 257.359375 263.988281 257.289062 264.011719 C 257.203125 264.039062 257.042969 264.085938 257.046875 264.113281 C 257.082031 264.492188 256.855469 264.472656 256.59375 264.441406 C 256.320312 264.402344 256.25 264.886719 255.917969 264.71875 C 255.890625 264.789062 255.84375 264.859375 255.839844 264.929688 C 255.828125 265.1875 255.816406 265.417969 255.441406 265.316406 C 255.320312 265.28125 255.183594 265.304688 255.050781 265.304688 C 255.054688 265.398438 255.101562 265.539062 255.058594 265.582031 C 254.972656 265.660156 254.820312 265.664062 254.722656 265.738281 C 254.5625 265.859375 254.738281 266.261719 254.839844 266.1875 C 255.140625 265.980469 255.128906 266.289062 255.242188 266.359375 C 255.371094 266.441406 255.394531 266.546875 255.234375 266.644531 C 255.144531 266.699219 255.0625 266.773438 254.988281 266.851562 C 254.949219 266.894531 254.910156 266.960938 254.910156 267.011719 C 254.921875 267.160156 254.953125 267.308594 254.976562 267.457031 C 254.796875 267.464844 254.617188 267.476562 254.4375 267.488281 C 254.160156 267.507812 253.875 267.335938 253.59375 267.554688 C 253.542969 267.597656 253.34375 267.414062 253.207031 267.390625 C 252.863281 267.34375 252.511719 267.304688 252.164062 267.304688 C 251.835938 267.308594 251.488281 267.09375 251.167969 267.371094 C 251.128906 267.410156 251.015625 267.359375 250.933594 267.359375 C 250.308594 267.359375 249.675781 267.300781 249.0625 267.378906 C 248.320312 267.476562 247.570312 267.402344 246.84375 267.523438 C 246.324219 267.609375 245.816406 267.5625 245.292969 267.539062 L 245.210938 268.507812 C 245.570312 268.472656 245.917969 268.683594 246.269531 268.433594 C 246.339844 268.382812 246.480469 268.457031 246.585938 268.449219 C 246.945312 268.417969 247.296875 268.613281 247.675781 268.425781 C 247.996094 268.269531 248.394531 268.582031 248.734375 268.3125 C 248.792969 268.265625 248.941406 268.320312 249.046875 268.332031 C 249.71875 268.402344 250.382812 268.265625 251.050781 268.242188 C 251.105469 268.242188 251.195312 268.261719 251.210938 268.296875 C 251.359375 268.597656 251.503906 268.476562 251.679688 268.316406 C 251.734375 268.265625 251.875 268.253906 251.945312 268.289062 C 252.070312 268.347656 252.152344 268.5 252.273438 268.539062 C 252.378906 268.570312 252.519531 268.460938 252.632812 268.480469 C 252.773438 268.5 252.9375 268.671875 253.027344 268.632812 C 253.171875 268.570312 253.265625 268.386719 253.40625 268.230469 C 253.492188 268.433594 253.46875 268.652344 253.335938 268.828125 C 253.273438 268.914062 253.023438 268.984375 253.015625 268.96875 C 252.855469 268.6875 252.65625 269.046875 252.5 268.929688 C 251.953125 268.507812 251.304688 268.8125 250.714844 268.683594 C 250.628906 268.664062 250.515625 268.785156 250.433594 268.765625 C 249.703125 268.59375 248.972656 268.875 248.238281 268.761719 C 248.050781 268.730469 247.847656 268.835938 247.652344 268.859375 C 247.472656 268.882812 247.273438 268.835938 247.117188 268.898438 C 246.839844 269.011719 246.980469 268.808594 246.949219 268.726562 C 246.9375 268.699219 246.882812 268.6875 246.84375 268.667969 C 246.738281 269.117188 246.390625 268.929688 246.15625 268.886719 C 245.847656 268.828125 245.511719 269.273438 245.242188 268.828125 C 245.160156 268.898438 245.015625 268.960938 245.007812 269.039062 C 244.980469 269.375 244.765625 269.644531 244.730469 269.992188 C 244.605469 271.253906 244.296875 272.492188 244.273438 273.765625 C 243.9375 274.480469 244.011719 275.257812 243.929688 276.011719 C 243.90625 276.230469 243.777344 276.484375 243.996094 276.691406 C 244.023438 276.71875 244.035156 276.808594 244.011719 276.835938 C 243.675781 277.246094 243.734375 277.757812 243.757812 278.203125 C 243.878906 280.289062 243.488281 282.335938 243.378906 284.40625 C 243.363281 284.628906 243.464844 284.800781 243.488281 284.996094 C 243.515625 285.203125 243.457031 285.421875 243.449219 285.636719 C 243.441406 285.84375 243.398438 286.070312 243.464844 286.253906 C 243.53125 286.421875 243.421875 286.558594 243.488281 286.742188 C 243.578125 286.996094 243.351562 287.382812 243.46875 287.601562 C 243.65625 287.945312 243.527344 288.117188 243.28125 288.222656 C 242.746094 288.449219 242.789062 288.871094 242.894531 289.289062 C 243.035156 289.855469 242.832031 290.394531 242.84375 290.945312 C 242.527344 291.191406 242.421875 291.523438 242.4375 291.910156 C 242.4375 291.941406 242.367188 292.003906 242.332031 292 C 242.113281 291.992188 241.945312 292.109375 241.933594 292.296875 C 241.917969 292.628906 241.769531 292.964844 241.945312 293.308594 C 242.007812 293.425781 241.960938 293.597656 241.964844 293.886719 C 241.707031 293.527344 241.539062 293.296875 241.375 293.070312 C 241.339844 293.019531 241.3125 292.964844 241.28125 292.914062 C 241.207031 292.984375 241.0625 293.113281 241.066406 293.117188 C 241.296875 293.382812 240.863281 293.542969 241.003906 293.808594 C 240.921875 293.78125 240.882812 293.769531 240.847656 293.757812 C 240.632812 293.6875 240.808594 293.230469 240.515625 293.328125 C 240.222656 293.429688 240.398438 293.679688 240.488281 293.898438 C 240.582031 294.128906 240.429688 294.222656 240.128906 294.148438 C 240.089844 294.136719 240 294.175781 239.992188 294.203125 C 239.960938 294.394531 239.894531 294.441406 239.78125 294.253906 C 239.730469 294.171875 239.738281 294.050781 239.679688 293.980469 C 239.578125 293.871094 239.433594 293.699219 239.332031 293.714844 C 238.996094 293.765625 238.976562 293.417969 238.777344 293.335938 C 238.5 293.21875 238.453125 293.027344 238.484375 292.769531 C 238.492188 292.730469 238.4375 292.683594 238.410156 292.640625 C 238.308594 292.472656 238.226562 292.277344 238.089844 292.148438 C 237.992188 292.0625 237.660156 292.351562 237.535156 292.613281 C 237.480469 292.722656 237.429688 292.835938 237.363281 292.945312 C 237.339844 292.980469 237.261719 293.03125 237.25 293.023438 C 237.085938 292.902344 236.914062 292.785156 236.78125 292.636719 C 236.726562 292.578125 236.746094 292.441406 236.75 292.339844 C 236.769531 292.046875 236.835938 291.75 236.808594 291.460938 C 236.789062 291.210938 236.800781 290.875 236.398438 290.867188 C 236.371094 290.867188 236.328125 290.875 236.320312 290.859375 C 236.128906 290.597656 236.195312 290.125 235.855469 290.035156 C 235.394531 289.914062 235.621094 289.503906 235.433594 289.285156 C 235.378906 289.226562 235.378906 289.070312 235.417969 288.988281 C 235.710938 288.378906 235.765625 287.757812 235.570312 287.113281 C 235.5625 287.089844 235.574219 287.058594 235.574219 287.03125 C 235.585938 286.246094 235.558594 285.460938 235.617188 284.679688 C 235.753906 282.753906 235.933594 280.828125 236.082031 278.90625 C 236.109375 278.585938 235.972656 278.222656 236.085938 277.953125 C 236.222656 277.613281 236.195312 277.285156 236.246094 276.953125 C 236.292969 276.632812 236.304688 276.308594 236.332031 275.988281 C 236.359375 275.640625 236.378906 275.292969 236.421875 274.949219 C 236.445312 274.746094 236.488281 274.554688 236.558594 274.355469 C 236.664062 274.039062 236.5 273.648438 236.847656 273.375 C 236.890625 273.339844 236.757812 273.109375 236.746094 272.96875 C 236.71875 272.527344 237.203125 272.125 236.851562 271.65625 C 237.265625 271.226562 236.886719 270.5625 237.300781 270.132812 C 237.214844 269.902344 237.613281 269.542969 237.109375 269.417969 C 237.085938 269.410156 237.082031 269.171875 237.109375 269.164062 C 237.453125 269.050781 237.34375 268.652344 237.5625 268.46875 C 237.480469 268.386719 237.375 268.222656 237.320312 268.238281 C 236.59375 268.457031 235.8125 268.324219 235.09375 268.601562 C 234.9375 268.664062 234.726562 268.597656 234.542969 268.578125 C 234.378906 268.558594 234.253906 268.613281 234.101562 268.683594 C 233.957031 268.753906 233.730469 268.703125 233.554688 268.648438 C 233.414062 268.609375 233.335938 268.933594 233.164062 268.683594 C 233.121094 268.625 232.855469 268.738281 232.695312 268.746094 C 232.535156 268.75 232.371094 268.738281 232.214844 268.707031 C 231.992188 268.660156 231.726562 268.765625 231.550781 268.523438 C 231.523438 268.488281 231.355469 268.519531 231.28125 268.566406 C 231.136719 268.664062 231.0625 268.601562 230.945312 268.511719 C 230.824219 268.414062 230.621094 268.28125 230.527344 268.324219 C 230.167969 268.484375 230.453125 268.09375 230.308594 268.097656 C 230.164062 268.101562 230 268.070312 229.875 268.125 C 229.734375 268.183594 229.5625 268.214844 229.566406 268.070312 C 229.582031 267.695312 229.257812 267.6875 229.074219 267.539062 C 228.867188 267.363281 228.628906 267.210938 228.378906 267.109375 C 228.113281 267 227.980469 266.835938 228.066406 266.574219 C 228.164062 266.277344 227.738281 266.117188 227.839844 265.988281 C 228.019531 265.761719 227.953125 265.535156 227.992188 265.3125 C 228.003906 265.257812 227.898438 265.167969 227.832031 265.117188 C 227.695312 265.015625 227.546875 264.929688 227.449219 264.863281 C 227.597656 264.730469 227.757812 264.585938 227.914062 264.441406 C 227.695312 264.144531 227.847656 264.105469 228.113281 264.171875 C 228.410156 264.246094 228.53125 263.996094 228.714844 263.863281 C 228.734375 263.851562 228.722656 263.789062 228.714844 263.753906 C 228.710938 263.742188 228.667969 263.730469 228.644531 263.730469 C 228.597656 263.734375 228.53125 263.730469 228.5 263.757812 C 228.339844 263.910156 228.171875 263.882812 228 263.789062 C 228.140625 263.65625 228.367188 263.613281 228.421875 263.386719 C 228.777344 263.46875 229.046875 263.222656 229.355469 263.132812 C 229.691406 263.035156 230.015625 262.910156 230.375 262.902344 C 230.707031 262.890625 231.039062 262.867188 231.367188 262.820312 C 231.785156 262.761719 232.210938 262.703125 232.621094 262.601562 C 233.363281 262.417969 234.105469 262.292969 234.871094 262.300781 C 235.09375 262.304688 235.316406 262.234375 235.542969 262.203125 C 236.433594 262.070312 237.335938 262 238.21875 261.78125 C 238.714844 261.65625 238.734375 261.621094 238.453125 261.144531 C 238.433594 261.113281 238.472656 261.042969 238.484375 260.992188 C 238.742188 261.082031 238.691406 260.828125 238.773438 260.726562 C 238.835938 260.648438 238.90625 260.550781 238.90625 260.464844 C 238.917969 259.535156 239.199219 258.648438 239.335938 257.742188 C 239.535156 256.433594 239.644531 255.117188 239.8125 253.808594 C 239.851562 253.527344 239.824219 253.253906 239.855469 252.976562 C 239.894531 252.65625 239.9375 252.335938 239.933594 252.015625 C 239.925781 251.636719 240.023438 251.277344 240.199219 250.976562 C 240.726562 250.082031 241.222656 249.144531 242.371094 248.855469 C 242.550781 248.8125 242.617188 248.769531 242.71875 248.921875 C 242.8125 249.058594 242.910156 249.144531 243.105469 249.027344 C 243.222656 248.957031 243.40625 248.96875 243.554688 248.984375 C 243.621094 248.992188 243.695312 249.09375 243.726562 249.171875 C 243.765625 249.257812 243.761719 249.367188 243.777344 249.464844 C 243.867188 249.382812 243.964844 249.304688 244.046875 249.210938 C 244.074219 249.179688 244.050781 249.105469 244.066406 249.054688 C 244.089844 248.992188 244.132812 248.933594 244.167969 248.871094 C 244.238281 248.953125 244.382812 249.085938 244.367188 249.109375 C 244.085938 249.523438 244.347656 249.386719 244.542969 249.285156 C 244.796875 249.152344 244.917969 248.9375 244.914062 248.636719 C 244.914062 248.511719 244.839844 248.277344 245.109375 248.300781 C 245.324219 248.316406 245.222656 248.492188 245.234375 248.609375 C 245.234375 248.636719 245.21875 248.675781 245.230469 248.6875 C 245.285156 248.730469 245.347656 248.796875 245.40625 248.796875 C 245.457031 248.792969 245.546875 248.710938 245.546875 248.664062 C 245.542969 248.503906 245.464844 248.21875 245.5 248.207031 C 245.847656 248.074219 245.679688 248.488281 245.851562 248.566406 C 245.941406 248.609375 246.035156 248.707031 246.113281 248.695312 C 246.527344 248.640625 246.625 248.992188 246.617188 249.210938 C 246.59375 249.914062 247.027344 250.507812 247.035156 251.195312 C 247.039062 251.417969 247.097656 251.636719 247.136719 251.871094 Z M 247.132812 251.875 "/></g></g></g><g style="fill:#000000;fill-opacity:1;"><g transform="translate(101.481748, 291.85814)"><path style="stroke:none" d="M 10.109375 0 L 5.875 0 L 5.875 -23.796875 L 1.296875 -23.796875 L 1.296875 -27.53125 L 5.875 -27.53125 L 5.875 -30.53125 C 5.875 -35.507812 8.25 -38 13 -38 L 16.53125 -38 L 16.53125 -34.265625 L 13.9375 -34.265625 C 11.382812 -34.265625 10.109375 -32.835938 10.109375 -29.984375 L 10.109375 -27.53125 L 16.53125 -27.53125 L 16.53125 -23.796875 L 10.109375 -23.796875 Z M 10.109375 0 "/></g></g><g style="fill:#000000;fill-opacity:1;"><g transform="translate(119.056108, 291.85814)"><path style="stroke:none" d="M 13.25 0 L 9.3125 0 L 1.25 -27.53125 L 5.78125 -27.53125 L 11.546875 -6.875 L 18.46875 -27.53125 L 22.3125 -27.53125 L 29.234375 -6.875 L 35.0625 -27.53125 L 39.59375 -27.53125 L 31.421875 0 L 27.484375 0 L 20.421875 -21.5625 Z M 13.25 0 "/></g></g><g style="fill:#000000;fill-opacity:1;"><g transform="translate(159.880413, 291.85814)"><path style="stroke:none" d="M 16.828125 0.5 C 14.941406 0.5 13.316406 0.148438 11.953125 -0.546875 C 10.585938 -1.242188 9.207031 -2.488281 7.8125 -4.28125 L 7.8125 0 L 3.578125 0 L 3.578125 -38 L 7.8125 -38 L 7.8125 -23.25 C 9.238281 -25.113281 10.640625 -26.375 12.015625 -27.03125 C 13.398438 -27.695312 15.003906 -28.03125 16.828125 -28.03125 C 19.316406 -28.03125 21.472656 -27.425781 23.296875 -26.21875 C 25.128906 -25.007812 26.550781 -23.332031 27.5625 -21.1875 C 28.570312 -19.050781 29.078125 -16.570312 29.078125 -13.75 C 29.078125 -10.957031 28.570312 -8.488281 27.5625 -6.34375 C 26.550781 -4.207031 25.128906 -2.53125 23.296875 -1.3125 C 21.472656 -0.101562 19.316406 0.5 16.828125 0.5 Z M 16.4375 -3.234375 C 18.15625 -3.234375 19.644531 -3.695312 20.90625 -4.625 C 22.175781 -5.5625 23.148438 -6.816406 23.828125 -8.390625 C 24.503906 -9.960938 24.84375 -11.75 24.84375 -13.75 C 24.84375 -15.769531 24.503906 -17.566406 23.828125 -19.140625 C 23.148438 -20.722656 22.175781 -21.976562 20.90625 -22.90625 C 19.644531 -23.832031 18.15625 -24.296875 16.4375 -24.296875 C 14.738281 -24.296875 13.222656 -23.835938 11.890625 -22.921875 C 10.566406 -22.015625 9.53125 -20.769531 8.78125 -19.1875 C 8.039062 -17.613281 7.671875 -15.800781 7.671875 -13.75 C 7.671875 -11.71875 8.039062 -9.910156 8.78125 -8.328125 C 9.53125 -6.753906 10.566406 -5.507812 11.890625 -4.59375 C 13.222656 -3.6875 14.738281 -3.234375 16.4375 -3.234375 Z M 16.4375 -3.234375 "/></g></g><g style="fill:#000000;fill-opacity:1;"><g transform="translate(191.444564, 291.85814)"><path style="stroke:none" d="M 14.640625 0.5 C 11.117188 0.5 8.269531 -0.335938 6.09375 -2.015625 C 3.925781 -3.691406 2.609375 -5.972656 2.140625 -8.859375 L 6.578125 -8.859375 C 6.941406 -7.203125 7.769531 -5.847656 9.0625 -4.796875 C 10.351562 -3.753906 12.226562 -3.234375 14.6875 -3.234375 C 16.550781 -3.234375 18.070312 -3.585938 19.25 -4.296875 C 20.425781 -5.015625 21.015625 -6.070312 21.015625 -7.46875 C 21.015625 -8.632812 20.648438 -9.53125 19.921875 -10.15625 C 19.191406 -10.789062 18.234375 -11.269531 17.046875 -11.59375 C 15.867188 -11.925781 14.601562 -12.226562 13.25 -12.5 C 12.050781 -12.726562 10.863281 -12.992188 9.6875 -13.296875 C 8.507812 -13.597656 7.4375 -14.015625 6.46875 -14.546875 C 5.507812 -15.078125 4.738281 -15.789062 4.15625 -16.6875 C 3.570312 -17.582031 3.28125 -18.726562 3.28125 -20.125 C 3.28125 -21.84375 3.71875 -23.289062 4.59375 -24.46875 C 5.476562 -25.65625 6.679688 -26.546875 8.203125 -27.140625 C 9.734375 -27.734375 11.429688 -28.03125 13.296875 -28.03125 C 16.285156 -28.03125 18.773438 -27.257812 20.765625 -25.71875 C 22.753906 -24.175781 23.984375 -22.023438 24.453125 -19.265625 L 20.515625 -19.265625 C 20.085938 -21.023438 19.234375 -22.300781 17.953125 -23.09375 C 16.671875 -23.894531 15.117188 -24.296875 13.296875 -24.296875 C 11.472656 -24.296875 10.050781 -23.957031 9.03125 -23.28125 C 8.019531 -22.601562 7.515625 -21.664062 7.515625 -20.46875 C 7.515625 -19.5 7.851562 -18.738281 8.53125 -18.1875 C 9.21875 -17.644531 10.109375 -17.234375 11.203125 -16.953125 C 12.296875 -16.671875 13.472656 -16.398438 14.734375 -16.140625 C 15.960938 -15.898438 17.195312 -15.625 18.4375 -15.3125 C 19.6875 -15 20.828125 -14.554688 21.859375 -13.984375 C 22.890625 -13.421875 23.710938 -12.660156 24.328125 -11.703125 C 24.941406 -10.742188 25.25 -9.484375 25.25 -7.921875 C 25.25 -5.398438 24.328125 -3.363281 22.484375 -1.8125 C 20.640625 -0.269531 18.023438 0.5 14.640625 0.5 Z M 14.640625 0.5 "/></g></g><g style="fill:#000000;fill-opacity:1;"><g transform="translate(219.175222, 291.85814)"><path style="stroke:none" d="M 5.671875 -32.265625 C 4.773438 -32.265625 4.007812 -32.570312 3.375 -33.1875 C 2.75 -33.800781 2.4375 -34.539062 2.4375 -35.40625 C 2.4375 -36.269531 2.75 -37 3.375 -37.59375 C 4.007812 -38.195312 4.773438 -38.5 5.671875 -38.5 C 6.566406 -38.5 7.328125 -38.195312 7.953125 -37.59375 C 8.585938 -37 8.90625 -36.269531 8.90625 -35.40625 C 8.90625 -34.539062 8.585938 -33.800781 7.953125 -33.1875 C 7.328125 -32.570312 6.566406 -32.265625 5.671875 -32.265625 Z M 7.765625 0 L 3.53125 0 L 3.53125 -27.53125 L 7.765625 -27.53125 Z M 7.765625 0 "/></g></g><g style="fill:#000000;fill-opacity:1;"><g transform="translate(248.205281, 291.85814)"><path style="stroke:none" d="M 15.78125 0.5 C 13.164062 0.5 10.84375 -0.117188 8.8125 -1.359375 C 6.789062 -2.609375 5.210938 -4.300781 4.078125 -6.4375 C 2.953125 -8.582031 2.390625 -11 2.390625 -13.6875 C 2.390625 -16.175781 2.90625 -18.515625 3.9375 -20.703125 C 4.96875 -22.898438 6.476562 -24.671875 8.46875 -26.015625 C 10.457031 -27.359375 12.863281 -28.03125 15.6875 -28.03125 C 18.007812 -28.03125 20.175781 -27.515625 22.1875 -26.484375 C 24.195312 -25.460938 25.832031 -23.9375 27.09375 -21.90625 C 28.351562 -19.882812 28.984375 -17.394531 28.984375 -14.4375 L 28.984375 -12.953125 L 6.578125 -12.953125 C 6.640625 -11.984375 6.820312 -11.066406 7.125 -10.203125 C 7.820312 -8.078125 8.929688 -6.382812 10.453125 -5.125 C 11.984375 -3.863281 13.742188 -3.234375 15.734375 -3.234375 C 17.828125 -3.234375 19.570312 -3.789062 20.96875 -4.90625 C 22.363281 -6.019531 23.359375 -7.335938 23.953125 -8.859375 L 28.484375 -8.859375 C 27.921875 -7.140625 27.070312 -5.570312 25.9375 -4.15625 C 24.8125 -2.75 23.410156 -1.617188 21.734375 -0.765625 C 20.054688 0.078125 18.070312 0.5 15.78125 0.5 Z M 6.96875 -16.6875 L 24.453125 -16.6875 C 24.421875 -17.144531 24.351562 -17.601562 24.25 -18.0625 C 24.15625 -18.53125 24.023438 -18.96875 23.859375 -19.375 C 23.117188 -20.96875 22.023438 -22.1875 20.578125 -23.03125 C 19.140625 -23.875 17.539062 -24.296875 15.78125 -24.296875 C 13.957031 -24.296875 12.351562 -23.863281 10.96875 -23 C 9.59375 -22.144531 8.523438 -20.9375 7.765625 -19.375 C 7.566406 -18.9375 7.398438 -18.484375 7.265625 -18.015625 C 7.140625 -17.554688 7.039062 -17.113281 6.96875 -16.6875 Z M 6.96875 -16.6875 "/></g></g></g></svg>