<svg xmlns="http://www.w3.org/2000/svg" xmlns:xlink="http://www.w3.org/1999/xlink" width="500" zoomAndPan="magnify" viewBox="0 0 375 374.999991" height="500" preserveAspectRatio="xMidYMid meet" version="1.2"><defs><clipPath id="12cd5d282f"><path d="M 230 161 L 262 161 L 262 209 L 230 209 Z M 230 161 "/></clipPath><clipPath id="bfeba12a93"><path d="M 231.695312 160.496094 L 262.339844 163.042969 L 258.425781 210.132812 L 227.78125 207.585938 Z M 231.695312 160.496094 "/></clipPath><clipPath id="5ca17bfc9e"><path d="M 231.695312 160.496094 L 262.339844 163.042969 L 258.425781 210.132812 L 227.78125 207.585938 Z M 231.695312 160.496094 "/></clipPath></defs><g id="45a08dc767"><g clip-rule="nonzero" clip-path="url(#12cd5d282f)"><g clip-rule="nonzero" clip-path="url(#bfeba12a93)"><g clip-rule="nonzero" clip-path="url(#5ca17bfc9e)"><path style=" stroke:none;fill-rule:nonzero;fill:#a0261f;fill-opacity:1;" d="M 249.84375 166.03125 C 250.296875 165.691406 250.144531 165.21875 250.148438 164.789062 C 250.148438 164.695312 250.050781 164.59375 250.066406 164.507812 C 250.132812 164.097656 250.097656 163.628906 250.042969 163.238281 C 249.992188 162.871094 249.910156 162.542969 249.664062 162.257812 C 249.621094 162.210938 249.671875 162.082031 249.675781 161.992188 C 249.765625 162.019531 249.894531 162.019531 249.9375 162.082031 C 250.089844 162.285156 250.308594 162.5 250.328125 162.730469 C 250.382812 163.257812 250.652344 163.738281 250.574219 164.300781 C 250.449219 165.203125 250.414062 166.117188 250.332031 167.023438 C 250.304688 167.359375 250.335938 167.707031 250.09375 167.988281 C 249.949219 168.15625 250.3125 168.3125 250.09375 168.523438 C 249.988281 168.625 250.023438 168.875 250.003906 169.058594 C 249.96875 169.429688 249.976562 169.8125 249.902344 170.179688 C 249.730469 171.027344 249.558594 171.875 249.535156 172.746094 C 249.191406 173.292969 249.335938 173.910156 249.203125 174.554688 C 249.734375 174.496094 250.167969 174.691406 250.65625 174.511719 C 250.933594 174.410156 251.320312 174.496094 251.636719 174.664062 C 250.933594 174.601562 250.25 174.867188 249.542969 174.722656 C 249.234375 174.664062 249.082031 174.789062 249.023438 175.046875 C 248.996094 175.171875 248.96875 175.34375 249.175781 175.328125 C 249.457031 175.304688 249.75 175.507812 250.019531 175.277344 C 250.054688 175.25 250.117188 175.253906 250.167969 175.253906 C 250.738281 175.246094 251.308594 175.242188 251.878906 175.230469 C 252.042969 175.226562 252.289062 175.101562 252.351562 175.167969 C 252.566406 175.390625 252.699219 175.023438 252.90625 175.140625 C 253.050781 175.226562 253.273438 175.175781 253.457031 175.203125 C 253.648438 175.230469 253.824219 175.234375 253.96875 175.085938 C 253.980469 175.074219 254.019531 175.085938 254.046875 175.089844 C 255.039062 175.289062 256.046875 175.035156 257.042969 175.183594 C 257.1875 175.203125 257.316406 175.304688 257.457031 175.34375 C 257.609375 175.382812 257.769531 175.417969 257.925781 175.40625 C 258.382812 175.371094 258.394531 175.375 258.332031 175.792969 C 258.316406 175.890625 258.289062 176.003906 258.230469 176.074219 C 258.113281 176.207031 258.175781 176.21875 258.300781 176.253906 C 258.492188 176.308594 258.671875 176.417969 258.863281 176.453125 C 259.128906 176.5 259.398438 176.523438 259.667969 176.519531 C 259.871094 176.515625 260.082031 176.359375 260.222656 176.65625 C 260.25 176.71875 260.398438 176.738281 260.496094 176.753906 C 260.703125 176.78125 260.914062 176.789062 261.105469 176.804688 C 261.175781 177.054688 260.609375 177.042969 260.941406 177.355469 C 260.964844 177.378906 260.953125 177.457031 260.9375 177.507812 C 260.917969 177.566406 260.066406 178.148438 260 178.171875 C 259.914062 178.199219 259.753906 178.246094 259.753906 178.269531 C 259.792969 178.652344 259.566406 178.632812 259.304688 178.597656 C 259.027344 178.5625 258.960938 179.042969 258.628906 178.878906 C 258.601562 178.949219 258.550781 179.015625 258.550781 179.085938 C 258.539062 179.347656 258.523438 179.578125 258.152344 179.472656 C 258.03125 179.441406 257.890625 179.464844 257.761719 179.460938 C 257.765625 179.558594 257.8125 179.695312 257.765625 179.738281 C 257.683594 179.820312 257.53125 179.824219 257.433594 179.894531 C 257.273438 180.019531 257.445312 180.421875 257.550781 180.347656 C 257.847656 180.136719 257.835938 180.449219 257.953125 180.519531 C 258.082031 180.601562 258.105469 180.707031 257.945312 180.800781 C 257.855469 180.855469 257.773438 180.933594 257.699219 181.011719 C 257.660156 181.050781 257.617188 181.117188 257.621094 181.171875 C 257.628906 181.320312 257.660156 181.46875 257.683594 181.613281 C 257.503906 181.625 257.328125 181.632812 257.148438 181.648438 C 256.871094 181.667969 256.582031 181.492188 256.304688 181.714844 C 256.253906 181.753906 256.054688 181.570312 255.917969 181.550781 C 255.570312 181.5 255.222656 181.460938 254.875 181.464844 C 254.542969 181.464844 254.199219 181.253906 253.878906 181.53125 C 253.835938 181.566406 253.722656 181.515625 253.644531 181.515625 C 253.019531 181.515625 252.386719 181.457031 251.773438 181.539062 C 251.03125 181.632812 250.28125 181.558594 249.554688 181.679688 C 249.03125 181.769531 248.527344 181.722656 248 181.695312 L 247.921875 182.667969 C 248.28125 182.628906 248.625 182.839844 248.980469 182.589844 C 249.046875 182.542969 249.191406 182.613281 249.296875 182.605469 C 249.65625 182.578125 250.007812 182.773438 250.382812 182.585938 C 250.703125 182.429688 251.101562 182.742188 251.441406 182.472656 C 251.503906 182.421875 251.652344 182.480469 251.757812 182.492188 C 252.429688 182.558594 253.089844 182.425781 253.757812 182.402344 C 253.8125 182.402344 253.902344 182.417969 253.921875 182.457031 C 254.070312 182.757812 254.214844 182.632812 254.386719 182.476562 C 254.445312 182.425781 254.585938 182.414062 254.65625 182.449219 C 254.777344 182.507812 254.863281 182.660156 254.984375 182.699219 C 255.085938 182.730469 255.230469 182.617188 255.34375 182.636719 C 255.484375 182.660156 255.648438 182.832031 255.734375 182.792969 C 255.878906 182.730469 255.976562 182.546875 256.113281 182.386719 C 256.203125 182.59375 256.175781 182.808594 256.046875 182.988281 C 255.984375 183.074219 255.730469 183.140625 255.726562 183.128906 C 255.566406 182.847656 255.363281 183.203125 255.210938 183.089844 C 254.664062 182.667969 254.011719 182.972656 253.421875 182.839844 C 253.339844 182.824219 253.226562 182.941406 253.144531 182.921875 C 252.414062 182.753906 251.679688 183.035156 250.949219 182.917969 C 250.761719 182.890625 250.558594 182.992188 250.359375 183.019531 C 250.183594 183.042969 249.984375 182.992188 249.824219 183.058594 C 249.550781 183.167969 249.691406 182.96875 249.660156 182.886719 C 249.648438 182.855469 249.589844 182.84375 249.554688 182.824219 C 249.449219 183.273438 249.097656 183.085938 248.863281 183.042969 C 248.558594 182.988281 248.222656 183.429688 247.953125 182.988281 C 247.871094 183.058594 247.722656 183.121094 247.71875 183.195312 C 247.691406 183.535156 247.472656 183.800781 247.441406 184.152344 C 247.316406 185.410156 247.007812 186.648438 246.980469 187.921875 C 246.644531 188.636719 246.722656 189.417969 246.640625 190.171875 C 246.617188 190.390625 246.488281 190.640625 246.707031 190.851562 C 246.734375 190.878906 246.746094 190.96875 246.722656 190.996094 C 246.382812 191.402344 246.445312 191.914062 246.46875 192.359375 C 246.585938 194.445312 246.199219 196.496094 246.085938 198.5625 C 246.074219 198.789062 246.175781 198.957031 246.199219 199.152344 C 246.226562 199.363281 246.167969 199.582031 246.160156 199.792969 C 246.152344 200.003906 246.105469 200.230469 246.175781 200.414062 C 246.238281 200.582031 246.132812 200.71875 246.199219 200.902344 C 246.289062 201.15625 246.0625 201.542969 246.179688 201.761719 C 246.367188 202.105469 246.238281 202.277344 245.992188 202.382812 C 245.457031 202.609375 245.496094 203.027344 245.601562 203.449219 C 245.742188 204.011719 245.539062 204.554688 245.554688 205.105469 C 245.238281 205.347656 245.132812 205.683594 245.144531 206.066406 C 245.144531 206.097656 245.074219 206.164062 245.039062 206.160156 C 244.820312 206.148438 244.65625 206.265625 244.644531 206.457031 C 244.628906 206.789062 244.476562 207.121094 244.65625 207.464844 C 244.714844 207.582031 244.667969 207.753906 244.675781 208.046875 C 244.414062 207.683594 244.25 207.457031 244.085938 207.226562 C 244.050781 207.179688 244.023438 207.125 243.992188 207.074219 C 243.917969 207.144531 243.773438 207.269531 243.777344 207.273438 C 244.003906 207.542969 243.574219 207.703125 243.714844 207.964844 C 243.628906 207.9375 243.59375 207.929688 243.558594 207.917969 C 243.34375 207.84375 243.515625 207.386719 243.226562 207.488281 C 242.933594 207.585938 243.109375 207.839844 243.195312 208.054688 C 243.292969 208.289062 243.140625 208.378906 242.839844 208.308594 C 242.800781 208.296875 242.707031 208.335938 242.703125 208.359375 C 242.671875 208.550781 242.605469 208.601562 242.492188 208.414062 C 242.441406 208.332031 242.449219 208.207031 242.386719 208.140625 C 242.289062 208.027344 242.144531 207.855469 242.042969 207.871094 C 241.707031 207.921875 241.683594 207.578125 241.488281 207.496094 C 241.207031 207.378906 241.164062 207.1875 241.195312 206.929688 C 241.199219 206.890625 241.148438 206.84375 241.121094 206.800781 C 241.015625 206.632812 240.9375 206.4375 240.796875 206.308594 C 240.703125 206.21875 240.367188 206.511719 240.242188 206.769531 C 240.191406 206.882812 240.136719 206.996094 240.074219 207.101562 C 240.050781 207.140625 239.972656 207.191406 239.960938 207.179688 C 239.796875 207.0625 239.625 206.945312 239.492188 206.796875 C 239.4375 206.738281 239.453125 206.601562 239.460938 206.5 C 239.480469 206.207031 239.542969 205.910156 239.519531 205.617188 C 239.5 205.367188 239.511719 205.035156 239.105469 205.027344 C 239.078125 205.027344 239.039062 205.03125 239.027344 205.019531 C 238.839844 204.757812 238.902344 204.285156 238.566406 204.195312 C 238.105469 204.074219 238.332031 203.664062 238.144531 203.445312 C 238.089844 203.382812 238.089844 203.226562 238.128906 203.144531 C 238.417969 202.539062 238.476562 201.914062 238.277344 201.269531 C 238.269531 201.246094 238.28125 201.21875 238.285156 201.191406 C 238.296875 200.40625 238.269531 199.621094 238.324219 198.839844 C 238.464844 196.910156 238.644531 194.988281 238.792969 193.0625 C 238.816406 192.746094 238.683594 192.382812 238.792969 192.109375 C 238.933594 191.773438 238.902344 191.441406 238.953125 191.109375 C 239.003906 190.792969 239.011719 190.46875 239.039062 190.148438 C 239.070312 189.800781 239.089844 189.453125 239.128906 189.105469 C 239.15625 188.90625 239.199219 188.710938 239.265625 188.515625 C 239.371094 188.199219 239.210938 187.808594 239.554688 187.535156 C 239.601562 187.496094 239.464844 187.269531 239.457031 187.125 C 239.425781 186.683594 239.914062 186.285156 239.5625 185.816406 C 239.972656 185.382812 239.597656 184.71875 240.011719 184.289062 C 239.921875 184.0625 240.320312 183.699219 239.816406 183.574219 C 239.796875 183.570312 239.792969 183.328125 239.820312 183.320312 C 240.164062 183.207031 240.054688 182.808594 240.273438 182.625 C 240.191406 182.546875 240.082031 182.382812 240.03125 182.398438 C 239.304688 182.617188 238.523438 182.484375 237.804688 182.761719 C 237.644531 182.820312 237.4375 182.757812 237.25 182.738281 C 237.085938 182.71875 236.960938 182.769531 236.8125 182.84375 C 236.664062 182.910156 236.4375 182.859375 236.261719 182.808594 C 236.125 182.765625 236.046875 183.09375 235.875 182.839844 C 235.832031 182.785156 235.566406 182.898438 235.402344 182.902344 C 235.242188 182.910156 235.078125 182.894531 234.921875 182.863281 C 234.699219 182.820312 234.4375 182.925781 234.257812 182.683594 C 234.234375 182.648438 234.066406 182.679688 233.992188 182.726562 C 233.847656 182.820312 233.769531 182.761719 233.65625 182.667969 C 233.535156 182.574219 233.332031 182.441406 233.238281 182.484375 C 232.875 182.644531 233.164062 182.253906 233.019531 182.257812 C 232.871094 182.261719 232.710938 182.230469 232.585938 182.28125 C 232.441406 182.339844 232.269531 182.371094 232.277344 182.226562 C 232.292969 181.855469 231.96875 181.84375 231.785156 181.695312 C 231.574219 181.523438 231.339844 181.371094 231.089844 181.265625 C 230.824219 181.15625 230.691406 180.992188 230.777344 180.730469 C 230.875 180.4375 230.449219 180.277344 230.550781 180.144531 C 230.730469 179.917969 230.660156 179.691406 230.703125 179.46875 C 230.714844 179.414062 230.609375 179.328125 230.539062 179.277344 C 230.402344 179.175781 230.253906 179.085938 230.160156 179.023438 C 230.308594 178.890625 230.464844 178.746094 230.625 178.601562 C 230.40625 178.304688 230.558594 178.265625 230.820312 178.332031 C 231.121094 178.40625 231.238281 178.152344 231.425781 178.023438 C 231.445312 178.011719 231.433594 177.949219 231.421875 177.914062 C 231.417969 177.898438 231.378906 177.886719 231.355469 177.890625 C 231.304688 177.894531 231.242188 177.890625 231.210938 177.917969 C 231.046875 178.066406 230.882812 178.042969 230.710938 177.949219 C 230.851562 177.8125 231.078125 177.773438 231.132812 177.546875 C 231.484375 177.625 231.757812 177.378906 232.066406 177.292969 C 232.402344 177.191406 232.726562 177.070312 233.085938 177.058594 C 233.414062 177.050781 233.746094 177.023438 234.074219 176.980469 C 234.496094 176.921875 234.917969 176.863281 235.332031 176.757812 C 236.074219 176.578125 236.816406 176.453125 237.582031 176.460938 C 237.804688 176.464844 238.027344 176.394531 238.25 176.359375 C 239.144531 176.226562 240.046875 176.160156 240.925781 175.9375 C 241.425781 175.816406 241.441406 175.777344 241.164062 175.304688 C 241.144531 175.269531 241.183594 175.203125 241.195312 175.152344 C 241.453125 175.242188 241.402344 174.984375 241.484375 174.882812 C 241.546875 174.808594 241.617188 174.710938 241.617188 174.621094 C 241.628906 173.695312 241.910156 172.808594 242.046875 171.898438 C 242.246094 170.589844 242.351562 169.277344 242.523438 167.96875 C 242.5625 167.683594 242.535156 167.410156 242.566406 167.136719 C 242.601562 166.816406 242.648438 166.492188 242.640625 166.171875 C 242.632812 165.796875 242.730469 165.4375 242.90625 165.136719 C 243.433594 164.242188 243.929688 163.304688 245.082031 163.015625 C 245.257812 162.972656 245.324219 162.929688 245.429688 163.078125 C 245.523438 163.21875 245.617188 163.304688 245.816406 163.1875 C 245.933594 163.113281 246.117188 163.128906 246.261719 163.144531 C 246.328125 163.152344 246.402344 163.253906 246.4375 163.328125 C 246.472656 163.417969 246.472656 163.523438 246.484375 163.625 C 246.578125 163.539062 246.675781 163.464844 246.757812 163.371094 C 246.785156 163.339844 246.757812 163.261719 246.777344 163.214844 C 246.800781 163.148438 246.84375 163.089844 246.878906 163.03125 C 246.945312 163.113281 247.089844 163.246094 247.074219 163.269531 C 246.796875 163.683594 247.054688 163.546875 247.253906 163.441406 C 247.507812 163.308594 247.625 163.097656 247.625 162.796875 C 247.625 162.667969 247.546875 162.4375 247.820312 162.457031 C 248.035156 162.476562 247.933594 162.652344 247.941406 162.765625 C 247.945312 162.792969 247.925781 162.835938 247.9375 162.84375 C 247.992188 162.890625 248.054688 162.957031 248.113281 162.953125 C 248.164062 162.953125 248.253906 162.871094 248.253906 162.824219 C 248.253906 162.664062 248.175781 162.378906 248.210938 162.363281 C 248.558594 162.234375 248.390625 162.644531 248.558594 162.726562 C 248.648438 162.769531 248.742188 162.863281 248.824219 162.855469 C 249.234375 162.800781 249.335938 163.152344 249.328125 163.371094 C 249.304688 164.074219 249.738281 164.664062 249.746094 165.351562 C 249.75 165.574219 249.808594 165.796875 249.84375 166.03125 Z M 249.84375 166.03125 "/></g></g></g><g style="fill:#000000;fill-opacity:1;"><g transform="translate(104.191372, 206.016794)"><path style="stroke:none" d="M 10.109375 0 L 5.875 0 L 5.875 -23.796875 L 1.296875 -23.796875 L 1.296875 -27.53125 L 5.875 -27.53125 L 5.875 -30.53125 C 5.875 -35.507812 8.25 -38 13 -38 L 16.53125 -38 L 16.53125 -34.265625 L 13.9375 -34.265625 C 11.382812 -34.265625 10.109375 -32.835938 10.109375 -29.984375 L 10.109375 -27.53125 L 16.53125 -27.53125 L 16.53125 -23.796875 L 10.109375 -23.796875 Z M 10.109375 0 "/></g></g><g style="fill:#000000;fill-opacity:1;"><g transform="translate(121.765732, 206.016794)"><path style="stroke:none" d="M 13.25 0 L 9.3125 0 L 1.25 -27.53125 L 5.78125 -27.53125 L 11.546875 -6.875 L 18.46875 -27.53125 L 22.3125 -27.53125 L 29.234375 -6.875 L 35.0625 -27.53125 L 39.59375 -27.53125 L 31.421875 0 L 27.484375 0 L 20.421875 -21.5625 Z M 13.25 0 "/></g></g><g style="fill:#000000;fill-opacity:1;"><g transform="translate(162.590037, 206.016794)"><path style="stroke:none" d="M 16.828125 0.5 C 14.941406 0.5 13.316406 0.148438 11.953125 -0.546875 C 10.585938 -1.242188 9.207031 -2.488281 7.8125 -4.28125 L 7.8125 0 L 3.578125 0 L 3.578125 -38 L 7.8125 -38 L 7.8125 -23.25 C 9.238281 -25.113281 10.640625 -26.375 12.015625 -27.03125 C 13.398438 -27.695312 15.003906 -28.03125 16.828125 -28.03125 C 19.316406 -28.03125 21.472656 -27.425781 23.296875 -26.21875 C 25.128906 -25.007812 26.550781 -23.332031 27.5625 -21.1875 C 28.570312 -19.050781 29.078125 -16.570312 29.078125 -13.75 C 29.078125 -10.957031 28.570312 -8.488281 27.5625 -6.34375 C 26.550781 -4.207031 25.128906 -2.53125 23.296875 -1.3125 C 21.472656 -0.101562 19.316406 0.5 16.828125 0.5 Z M 16.4375 -3.234375 C 18.15625 -3.234375 19.644531 -3.695312 20.90625 -4.625 C 22.175781 -5.5625 23.148438 -6.816406 23.828125 -8.390625 C 24.503906 -9.960938 24.84375 -11.75 24.84375 -13.75 C 24.84375 -15.769531 24.503906 -17.566406 23.828125 -19.140625 C 23.148438 -20.722656 22.175781 -21.976562 20.90625 -22.90625 C 19.644531 -23.832031 18.15625 -24.296875 16.4375 -24.296875 C 14.738281 -24.296875 13.222656 -23.835938 11.890625 -22.921875 C 10.566406 -22.015625 9.53125 -20.769531 8.78125 -19.1875 C 8.039062 -17.613281 7.671875 -15.800781 7.671875 -13.75 C 7.671875 -11.71875 8.039062 -9.910156 8.78125 -8.328125 C 9.53125 -6.753906 10.566406 -5.507812 11.890625 -4.59375 C 13.222656 -3.6875 14.738281 -3.234375 16.4375 -3.234375 Z M 16.4375 -3.234375 "/></g></g><g style="fill:#000000;fill-opacity:1;"><g transform="translate(194.154188, 206.016794)"><path style="stroke:none" d="M 14.640625 0.5 C 11.117188 0.5 8.269531 -0.335938 6.09375 -2.015625 C 3.925781 -3.691406 2.609375 -5.972656 2.140625 -8.859375 L 6.578125 -8.859375 C 6.941406 -7.203125 7.769531 -5.847656 9.0625 -4.796875 C 10.351562 -3.753906 12.226562 -3.234375 14.6875 -3.234375 C 16.550781 -3.234375 18.070312 -3.585938 19.25 -4.296875 C 20.425781 -5.015625 21.015625 -6.070312 21.015625 -7.46875 C 21.015625 -8.632812 20.648438 -9.53125 19.921875 -10.15625 C 19.191406 -10.789062 18.234375 -11.269531 17.046875 -11.59375 C 15.867188 -11.925781 14.601562 -12.226562 13.25 -12.5 C 12.050781 -12.726562 10.863281 -12.992188 9.6875 -13.296875 C 8.507812 -13.597656 7.4375 -14.015625 6.46875 -14.546875 C 5.507812 -15.078125 4.738281 -15.789062 4.15625 -16.6875 C 3.570312 -17.582031 3.28125 -18.726562 3.28125 -20.125 C 3.28125 -21.84375 3.71875 -23.289062 4.59375 -24.46875 C 5.476562 -25.65625 6.679688 -26.546875 8.203125 -27.140625 C 9.734375 -27.734375 11.429688 -28.03125 13.296875 -28.03125 C 16.285156 -28.03125 18.773438 -27.257812 20.765625 -25.71875 C 22.753906 -24.175781 23.984375 -22.023438 24.453125 -19.265625 L 20.515625 -19.265625 C 20.085938 -21.023438 19.234375 -22.300781 17.953125 -23.09375 C 16.671875 -23.894531 15.117188 -24.296875 13.296875 -24.296875 C 11.472656 -24.296875 10.050781 -23.957031 9.03125 -23.28125 C 8.019531 -22.601562 7.515625 -21.664062 7.515625 -20.46875 C 7.515625 -19.5 7.851562 -18.738281 8.53125 -18.1875 C 9.21875 -17.644531 10.109375 -17.234375 11.203125 -16.953125 C 12.296875 -16.671875 13.472656 -16.398438 14.734375 -16.140625 C 15.960938 -15.898438 17.195312 -15.625 18.4375 -15.3125 C 19.6875 -15 20.828125 -14.554688 21.859375 -13.984375 C 22.890625 -13.421875 23.710938 -12.660156 24.328125 -11.703125 C 24.941406 -10.742188 25.25 -9.484375 25.25 -7.921875 C 25.25 -5.398438 24.328125 -3.363281 22.484375 -1.8125 C 20.640625 -0.269531 18.023438 0.5 14.640625 0.5 Z M 14.640625 0.5 "/></g></g><g style="fill:#000000;fill-opacity:1;"><g transform="translate(221.884846, 206.016794)"><path style="stroke:none" d="M 5.671875 -32.265625 C 4.773438 -32.265625 4.007812 -32.570312 3.375 -33.1875 C 2.75 -33.800781 2.4375 -34.539062 2.4375 -35.40625 C 2.4375 -36.269531 2.75 -37 3.375 -37.59375 C 4.007812 -38.195312 4.773438 -38.5 5.671875 -38.5 C 6.566406 -38.5 7.328125 -38.195312 7.953125 -37.59375 C 8.585938 -37 8.90625 -36.269531 8.90625 -35.40625 C 8.90625 -34.539062 8.585938 -33.800781 7.953125 -33.1875 C 7.328125 -32.570312 6.566406 -32.265625 5.671875 -32.265625 Z M 7.765625 0 L 3.53125 0 L 3.53125 -27.53125 L 7.765625 -27.53125 Z M 7.765625 0 "/></g></g><g style="fill:#000000;fill-opacity:1;"><g transform="translate(250.91489, 206.016794)"><path style="stroke:none" d="M 15.78125 0.5 C 13.164062 0.5 10.84375 -0.117188 8.8125 -1.359375 C 6.789062 -2.609375 5.210938 -4.300781 4.078125 -6.4375 C 2.953125 -8.582031 2.390625 -11 2.390625 -13.6875 C 2.390625 -16.175781 2.90625 -18.515625 3.9375 -20.703125 C 4.96875 -22.898438 6.476562 -24.671875 8.46875 -26.015625 C 10.457031 -27.359375 12.863281 -28.03125 15.6875 -28.03125 C 18.007812 -28.03125 20.175781 -27.515625 22.1875 -26.484375 C 24.195312 -25.460938 25.832031 -23.9375 27.09375 -21.90625 C 28.351562 -19.882812 28.984375 -17.394531 28.984375 -14.4375 L 28.984375 -12.953125 L 6.578125 -12.953125 C 6.640625 -11.984375 6.820312 -11.066406 7.125 -10.203125 C 7.820312 -8.078125 8.929688 -6.382812 10.453125 -5.125 C 11.984375 -3.863281 13.742188 -3.234375 15.734375 -3.234375 C 17.828125 -3.234375 19.570312 -3.789062 20.96875 -4.90625 C 22.363281 -6.019531 23.359375 -7.335938 23.953125 -8.859375 L 28.484375 -8.859375 C 27.921875 -7.140625 27.070312 -5.570312 25.9375 -4.15625 C 24.8125 -2.75 23.410156 -1.617188 21.734375 -0.765625 C 20.054688 0.078125 18.070312 0.5 15.78125 0.5 Z M 6.96875 -16.6875 L 24.453125 -16.6875 C 24.421875 -17.144531 24.351562 -17.601562 24.25 -18.0625 C 24.15625 -18.53125 24.023438 -18.96875 23.859375 -19.375 C 23.117188 -20.96875 22.023438 -22.1875 20.578125 -23.03125 C 19.140625 -23.875 17.539062 -24.296875 15.78125 -24.296875 C 13.957031 -24.296875 12.351562 -23.863281 10.96875 -23 C 9.59375 -22.144531 8.523438 -20.9375 7.765625 -19.375 C 7.566406 -18.9375 7.398438 -18.484375 7.265625 -18.015625 C 7.140625 -17.554688 7.039062 -17.113281 6.96875 -16.6875 Z M 6.96875 -16.6875 "/></g></g></g></svg>